# 3ds Max Wavefront OBJ Exporter v0.97b - (c)2007 guruware
# File Created: 15.03.2015 22:52:43

mtllib chair_001.mtl

#
# object Box001
#

v  7.1102 1.1133 -8.1002
v  7.1102 1.1133 8.1002
v  7.1102 0.0000 8.1002
v  7.1102 0.0000 -8.1002
v  -7.1102 1.1133 8.1002
v  -7.1102 1.1133 -8.1002
v  -7.1102 0.0000 -8.1002
v  -7.1102 0.0000 8.1002
v  5.6882 15.0300 -8.1002
v  5.6882 15.0300 8.1002
v  7.1102 15.0300 8.1002
v  7.1102 15.0300 -8.1002
v  5.6882 1.1133 8.1002
v  5.6882 1.1133 -8.1002
v  6.9680 -13.9166 7.8688
v  6.1148 -13.9166 7.8688
v  6.1148 -13.9166 7.0356
v  6.9680 -13.9166 7.0356
v  6.1148 -13.9166 -7.8688
v  6.9680 -13.9166 -7.8688
v  6.9680 -13.9166 -7.0356
v  6.1148 -13.9166 -7.0356
v  -6.9680 -13.9166 -7.8688
v  -6.1148 -13.9166 -7.8688
v  -6.1148 -13.9166 -7.0356
v  -6.9680 -13.9166 -7.0356
v  -6.1148 -13.9166 7.8688
v  -6.9680 -13.9166 7.8688
v  -6.9680 -13.9166 7.0356
v  -6.1148 -13.9166 7.0356
v  -6.9680 0.0000 -7.8688
v  -6.9680 0.0000 -7.0356
v  -6.1148 0.0000 -7.0356
v  -6.1148 0.0000 -7.8688
v  6.9680 0.0000 -7.8688
v  6.1148 0.0000 -7.8688
v  6.1148 0.0000 -7.0356
v  6.9680 0.0000 -7.0356
v  6.1148 0.0000 7.0356
v  6.9680 0.0000 7.8688
v  6.9680 0.0000 7.0356
v  -6.1148 0.0000 7.0356
v  6.1148 0.0000 7.8688
v  -6.9680 0.0000 7.8688
v  -6.1148 0.0000 7.8688
v  -6.9680 0.0000 7.0356
# 46 vertices

vn 1.0000 0.0000 -0.0000
vn -1.0000 0.0000 -0.0000
vn 0.0000 1.0000 -0.0000
vn 0.0000 0.0000 1.0000
vn 0.0000 0.0000 -1.0000
vn 0.0000 -1.0000 -0.0000
# 6 vertex normals

vt 1.0000 1.0000 0.0000
vt 0.0000 1.0000 0.0000
vt 0.0000 0.0000 0.0000
vt 1.0000 0.0000 0.0000
vt 0.9000 1.0000 0.0000
vt 0.9000 0.0000 0.0000
vt 0.1000 1.0000 0.0000
vt 0.0800 0.0000 0.0000
vt 0.0800 0.0800 0.0000
vt 0.0000 0.0800 0.0000
vt 0.0800 1.0000 0.0000
vt 0.0000 0.9200 0.0000
vt 0.0800 0.9200 0.0000
vt 0.9200 1.0000 0.0000
vt 0.9200 0.9200 0.0000
vt 1.0000 0.9200 0.0000
vt 0.9200 0.0000 0.0000
vt 1.0000 0.0800 0.0000
vt 0.9200 0.0800 0.0000
# 19 texture coords

g Box001
usemtl wire_108008136
s 16
f 1/1/1 2/2/1 3/3/1 4/4/1 
s 64
f 5/1/2 6/2/2 7/3/2 8/4/2 
s 4
f 9/5/3 10/6/3 11/4/3 12/1/3 
s 8
f 3/4/4 2/1/4 13/5/4 5/2/4 
f 3/4/4 5/2/4 8/3/4 
s 32
f 7/4/5 6/1/5 14/7/5 1/2/5 
f 7/4/5 1/2/5 4/3/5 
s 2
f 15/3/6 16/8/6 17/9/6 18/10/6 
f 19/11/6 20/2/6 21/12/6 22/13/6 
f 23/1/6 24/14/6 25/15/6 26/16/6 
f 27/17/6 28/4/6 29/18/6 30/19/6 
f 7/1/6 31/1/6 32/16/3 33/15/1 
f 34/14/3 31/1/6 7/1/6 33/15/1 
f 7/1/6 4/2/6 35/2/6 36/11/6 
f 7/1/6 36/11/6 37/13/6 
f 33/15/6 7/1/6 37/13/6 
f 38/12/6 35/2/6 4/2/6 3/3/6 
f 37/13/6 38/12/6 3/3/6 39/9/6 
f 3/3/6 40/3/6 41/10/3 39/9/6 
f 33/15/1 37/13/6 39/9/6 42/19/6 
f 43/8/3 40/3/6 3/3/6 
f 39/9/3 43/8/3 3/3/3 
f 3/3/6 8/4/6 44/4/6 45/17/6 
f 3/3/6 45/17/6 42/19/6 
f 39/9/6 3/3/6 42/19/6 
f 7/1/6 33/15/6 42/19/6 
f 7/1/6 42/19/6 46/18/6 8/4/6 
f 8/4/6 46/18/6 44/4/6 
s off
f 41/10/1 40/3/1 15/3/1 18/10/1 
f 40/3/4 43/8/4 16/8/4 15/3/4 
f 43/8/2 39/9/2 17/9/2 16/8/2 
f 39/9/5 41/10/5 18/10/5 17/9/5 
f 37/13/2 36/11/2 19/11/2 22/13/2 
f 36/11/5 35/2/5 20/2/5 19/11/5 
f 35/2/1 38/12/1 21/12/1 20/2/1 
f 38/12/4 37/13/4 22/13/4 21/12/4 
f 32/16/2 31/1/2 23/1/2 26/16/2 
f 31/1/5 34/14/5 24/14/5 23/1/5 
f 34/14/1 33/15/1 25/15/1 24/14/1 
f 33/15/4 32/16/4 26/16/4 25/15/4 
f 42/19/1 45/17/1 27/17/1 30/19/1 
f 45/17/4 44/4/4 28/4/4 27/17/4 
f 44/4/2 46/18/2 29/18/2 28/4/2 
f 46/18/5 42/19/5 30/19/5 29/18/5 
s 4
f 6/2/3 5/3/3 13/6/3 14/5/3 
s off
f 2/4/1 1/1/1 12/1/1 11/4/1 
f 1/1/5 14/5/5 9/5/5 12/1/5 
f 14/5/2 13/6/2 10/6/2 9/5/2 
f 13/6/4 2/4/4 11/4/4 10/6/4 
# 39 polygons - 10 triangles

