# 3ds Max Wavefront OBJ Exporter v0.97b - (c)2007 guruware
# File Created: 17.02.2015 22:21:48

mtllib swing_002.mtl

#
# object Cylinder001
#

v  30.0000 1.5192 -18.6173
v  30.0000 1.3852 -18.1173
v  27.5500 1.3852 -18.1173
v  27.5500 1.5192 -18.6173
v  -30.0000 1.3852 -18.1173
v  -30.0000 1.5192 -18.6173
v  -27.5500 1.5192 -18.6173
v  -27.5500 1.3852 -18.1173
v  30.0000 1.3852 18.1174
v  30.0000 1.5192 18.6174
v  27.5500 1.5192 18.6174
v  27.5500 1.3852 18.1174
v  -30.0000 1.5192 18.6174
v  -30.0000 1.3852 18.1174
v  -27.5500 1.3852 18.1174
v  -27.5500 1.5192 18.6174
v  27.5500 69.1340 -0.5000
v  30.0000 69.1340 -0.5000
v  30.0000 69.0000 -0.0000
v  27.5500 69.0000 -0.0000
v  -27.5500 69.0000 -0.0000
v  -30.0000 69.0000 -0.0000
v  -30.0000 69.1340 -0.5000
v  -27.5500 69.1340 -0.5000
v  30.0000 69.5000 -0.8660
v  30.0000 70.0000 -1.0000
v  30.0000 69.1340 0.5000
v  30.0000 70.5000 -0.8660
v  30.0000 70.8660 -0.5000
v  30.0000 70.8660 0.5000
v  30.0000 71.0000 -0.0000
v  30.0000 70.5000 0.8660
v  30.0000 70.0000 1.0000
v  30.0000 69.5000 0.8660
v  27.5500 69.1340 0.5000
v  -27.5500 69.1340 0.5000
v  -30.0000 69.1340 0.5000
v  -30.0000 69.5000 0.8660
v  -30.0000 70.0000 1.0000
v  -30.0000 70.5000 0.8660
v  -30.0000 70.8660 0.5000
v  -30.0000 71.0000 -0.0000
v  -30.0000 70.5000 -0.8660
v  -30.0000 70.8660 -0.5000
v  -30.0000 70.0000 -1.0000
v  -30.0000 69.5000 -0.8660
# 46 vertices

vn -0.0000 -0.9659 -0.2588
vn -0.0000 -0.9659 0.2588
vn 0.0000 0.2588 -0.9659
vn -0.0000 -0.2588 0.9659
vn -1.0000 0.0000 -0.0000
vn 1.0000 -0.0000 -0.0000
vn -0.0000 -0.2588 -0.9659
vn 0.0000 0.2588 0.9659
vn -0.0000 -0.8181 -0.5751
vn -0.0000 -0.7071 0.7071
vn -0.0000 -0.5000 0.8660
vn 0.0000 0.0000 1.0000
vn 0.0000 0.5000 0.8660
vn 0.0000 0.8660 0.5000
vn 0.0000 1.0000 -0.0000
vn 0.0000 0.8660 -0.5000
vn 0.0000 0.5000 -0.8660
vn 0.0000 0.0000 -1.0000
vn -0.0000 -0.5000 -0.8660
vn -0.0000 -0.7071 -0.7071
# 20 vertex normals

vt 0.8333 1.0000 1.0000
vt 0.7500 1.0000 1.0000
vt 0.7500 0.9592 1.0000
vt 0.8333 0.9592 1.0000
vt 0.7500 0.0000 1.0000
vt 0.8333 0.0000 1.0000
vt 0.8333 0.0408 1.0000
vt 0.7500 0.0408 1.0000
vt 0.6667 1.0000 1.0000
vt 0.6667 0.9592 1.0000
vt 0.6667 0.0000 1.0000
vt 0.6667 0.0408 1.0000
vt 0.9055 1.0000 1.0000
vt 0.9472 1.0000 1.0000
vt 0.6778 1.0000 1.0000
vt 0.6362 1.0000 1.0000
vt -4.9567 1.0000 1.0000
vt -4.8846 1.0000 1.0000
vt 0.6362 0.0000 1.0000
vt 0.6778 0.0000 1.0000
vt 0.9472 0.0000 1.0000
vt 0.9055 0.0000 1.0000
vt -4.8846 0.0000 1.0000
vt -4.9567 0.0000 1.0000
vt 0.7500 0.7187 1.0000
vt 0.8333 0.7187 1.0000
vt 0.6667 0.7187 1.0000
vt 0.5833 1.0000 1.0000
vt 0.5833 0.7080 1.0000
vt 0.6667 0.7080 1.0000
vt 0.5000 1.0000 1.0000
vt 0.5000 0.7080 1.0000
vt 0.4167 1.0000 1.0000
vt 0.4167 0.7080 1.0000
vt 0.3333 1.0000 1.0000
vt 0.3333 0.7080 1.0000
vt 0.2500 1.0000 1.0000
vt 0.2500 0.7080 1.0000
vt 0.1667 1.0000 1.0000
vt 0.1667 0.7080 1.0000
vt 0.0833 1.0000 1.0000
vt 0.0833 0.7080 1.0000
vt 0.0000 1.0000 1.0000
vt 0.0000 0.7080 1.0000
vt 0.0000 0.7187 1.0000
vt 0.9167 0.7187 1.0000
vt 0.9167 1.0000 1.0000
vt 0.9167 0.7080 1.0000
vt 0.8333 0.7080 1.0000
# 49 texture coords

g Cylinder001
usemtl wire_000000000
s 1
f 1/1/1 2/2/1 3/3/1 4/4/1 
f 5/5/1 6/6/1 7/7/1 8/8/1 
f 9/2/2 10/9/2 11/10/2 12/3/2 
f 13/11/2 14/5/2 15/8/2 16/12/2 
s 4
f 17/4/3 18/1/3 1/1/3 4/4/3 
f 19/2/4 20/3/4 3/3/4 2/2/4 
s 8
f 20/3/5 17/4/5 4/4/5 3/3/5 
s 4
f 21/8/4 22/5/4 5/5/4 8/8/4 
f 23/6/3 24/7/3 7/7/3 6/6/3 
s 8
f 24/7/6 21/8/6 8/8/6 7/7/6 
s 16
f 20/3/7 19/2/7 9/2/7 12/3/7 
s 2
f 2/2/6 1/1/6 18/1/6 19/2/6 
f 18/1/6 25/13/6 26/14/6 27/15/6 
f 26/14/6 28/14/6 29/13/6 30/2/6 
f 29/13/6 31/1/6 30/2/6 
f 30/2/6 32/15/6 33/16/6 27/15/6 
f 33/16/6 34/16/6 27/15/6 
f 26/14/6 30/2/6 27/15/6 
f 19/2/6 18/1/6 27/15/6 10/17/6 
f 19/2/6 10/17/6 9/18/6 
s 4
f 27/9/8 35/10/8 11/10/8 10/9/8 
s 32
f 35/10/5 20/3/5 12/3/5 11/10/5 
s 4
f 36/12/8 37/11/8 13/11/8 16/12/8 
s 2
f 38/19/5 39/19/5 40/20/5 22/5/5 
f 40/20/5 41/5/5 42/6/5 43/21/5 
f 42/6/5 44/22/5 43/21/5 
f 43/21/5 45/21/5 46/22/5 22/5/5 
f 6/6/5 5/5/5 22/5/5 23/6/5 
f 46/22/5 23/6/5 22/5/5 
f 40/20/5 43/21/5 22/5/5 
f 37/20/5 38/19/5 22/5/5 14/23/5 
f 37/20/5 14/23/5 13/24/5 
s 16
f 22/5/7 21/8/7 15/8/7 14/5/7 
s 32
f 21/8/6 36/12/6 16/12/6 15/8/6 
s 1
f 17/4/9 20/3/1 21/25/1 24/26/9 
s 2
f 20/3/2 35/10/2 36/27/2 21/25/2 
s 1
f 27/9/10 34/28/11 38/29/11 35/10/10 
f 38/29/11 37/30/10 36/27/10 35/10/10 
f 34/28/11 33/31/12 39/32/12 38/29/11 
f 33/31/12 32/33/13 40/34/13 39/32/12 
f 32/33/13 30/35/14 41/36/14 40/34/13 
f 30/35/14 31/37/15 42/38/15 41/36/14 
f 31/37/15 29/39/16 44/40/16 42/38/15 
f 29/39/16 28/41/17 43/42/17 44/40/16 
f 28/41/17 26/43/18 45/44/18 43/42/17 
f 26/45/18 25/46/19 46/46/19 45/45/18 
f 25/47/19 18/1/20 17/4/9 46/48/19 
f 24/26/9 23/49/20 46/48/19 17/4/9 
# 40 polygons - 8 triangles

#
# object axle_slip2
#

v  11.1220 69.3750 -1.0825
v  13.1220 69.3750 -1.0825
v  13.1220 68.8794 -0.4830
v  11.1220 68.8794 -0.4830
v  11.1220 70.0000 -1.2500
v  13.1220 70.0000 -1.2500
v  11.1220 70.6250 -1.0825
v  13.1220 70.6250 -1.0825
v  11.1220 71.0825 -0.6250
v  13.1220 71.0825 -0.6250
v  11.1220 71.2500 -0.0000
v  13.1220 71.2500 -0.0000
v  11.1220 71.0825 0.6250
v  13.1220 71.0825 0.6250
v  11.1220 70.6250 1.0825
v  13.1220 70.6250 1.0825
v  11.1220 70.0000 1.2500
v  13.1220 70.0000 1.2500
v  11.1220 69.3750 1.0825
v  13.1220 69.3750 1.0825
v  11.1220 68.8794 0.4830
v  13.1220 68.8794 0.4830
v  12.2865 24.3142 0.3344
v  12.2865 24.3142 -0.3344
v  12.7550 25.0107 -0.3344
v  12.7550 25.0107 0.3344
v  12.4391 68.8794 -0.2330
v  11.8543 68.8794 -0.2330
v  11.8543 68.8794 0.2330
v  12.4391 68.8794 0.2330
v  11.9709 24.8228 0.2330
v  12.4391 25.0356 0.2330
v  11.9709 24.8228 -0.2330
v  12.4391 25.0356 -0.2330
v  12.2746 24.4756 0.2330
v  12.6010 24.9608 0.2330
v  12.2746 24.4756 -0.2330
v  12.6010 24.9608 -0.2330
v  -11.1220 69.3750 -1.0825
v  -11.1220 68.8794 -0.4830
v  -13.1220 68.8794 -0.4830
v  -13.1220 69.3750 -1.0825
v  -11.1220 70.0000 -1.2500
v  -13.1220 70.0000 -1.2500
v  -11.1220 70.6250 -1.0825
v  -13.1220 70.6250 -1.0825
v  -11.1220 71.0825 -0.6250
v  -13.1220 71.0825 -0.6250
v  -11.1220 71.2500 -0.0000
v  -13.1220 71.2500 -0.0000
v  -11.1220 71.0825 0.6250
v  -13.1220 71.0825 0.6250
v  -11.1220 70.6250 1.0825
v  -13.1220 70.6250 1.0825
v  -11.1220 70.0000 1.2500
v  -13.1220 70.0000 1.2500
v  -11.1220 69.3750 1.0825
v  -13.1220 69.3750 1.0825
v  -11.1220 68.8794 0.4830
v  -13.1220 68.8794 0.4830
v  -12.2865 24.3142 0.3344
v  -12.7550 25.0107 0.3344
v  -12.7550 25.0107 -0.3344
v  -12.2865 24.3142 -0.3344
v  -12.4391 68.8794 -0.2330
v  -12.4391 68.8794 0.2330
v  -11.8543 68.8794 -0.2330
v  -11.8543 68.8794 0.2330
v  -12.4391 25.0356 0.2330
v  -11.9709 24.8228 0.2330
v  -11.9709 24.8228 -0.2330
v  -12.4391 25.0356 -0.2330
v  -12.6010 24.9608 0.2330
v  -12.2745 24.4756 0.2330
v  -12.2745 24.4756 -0.2330
v  -12.6010 24.9608 -0.2330
# 76 vertices

vn 0.0000 -0.5404 -0.8414
vn 0.0000 -0.7708 -0.6371
vn 0.0000 -0.0000 -1.0000
vn -0.0000 0.2588 -0.9659
vn -0.0000 0.7071 -0.7071
vn -0.0000 1.0000 0.0000
vn -0.0000 0.9659 -0.2588
vn -0.0000 0.8660 0.5000
vn -0.0000 0.5000 0.8660
vn -0.0000 0.2588 0.9659
vn 0.0000 -0.5404 0.8414
vn 0.0000 -0.2588 0.9659
vn 0.0000 -0.7708 0.6371
vn -1.0000 -0.0000 -0.0000
vn 1.0000 0.0000 -0.0000
vn 0.8297 -0.5582 -0.0000
vn 0.0000 -1.0000 -0.0000
vn -0.0000 -1.0000 0.0000
vn 0.0000 -1.0000 0.0000
vn -0.0000 0.0000 1.0000
vn -1.0000 -0.0026 -0.0000
vn -0.7527 -0.6584 -0.0000
vn 0.4192 0.9079 -0.0000
vn -0.5908 0.3975 0.7021
vn -0.9973 -0.0736 -0.0000
vn -0.5908 0.3975 -0.7021
vn -0.3077 0.9515 -0.0000
vn -0.8297 -0.5582 -0.0000
vn 0.0000 0.0000 1.0000
vn 1.0000 -0.0026 -0.0000
vn -0.0000 -0.0000 -1.0000
vn -1.0000 0.0000 -0.0000
vn 0.7527 -0.6584 -0.0000
vn -0.4192 0.9079 -0.0000
vn 0.5908 0.3975 0.7021
vn 0.9973 -0.0736 -0.0000
vn 0.5908 0.3975 -0.7021
vn 0.3077 0.9515 -0.0000
# 38 vertex normals

vt 0.9167 0.6854 1.0000
vt 0.9167 0.7187 1.0000
vt 0.8144 0.7187 1.0000
vt 0.8144 0.6854 1.0000
vt 1.0000 0.6854 1.0000
vt 1.0000 0.7187 1.0000
vt 0.0833 0.6854 1.0000
vt 0.0833 0.7187 1.0000
vt 0.0000 0.7187 1.0000
vt 0.0000 0.6854 1.0000
vt 0.1667 0.6854 1.0000
vt 0.1667 0.7187 1.0000
vt 0.2500 0.6854 1.0000
vt 0.2500 0.7187 1.0000
vt 0.3333 0.6854 1.0000
vt 0.3333 0.7187 1.0000
vt 0.4167 0.6854 1.0000
vt 0.4167 0.7187 1.0000
vt 0.5000 0.6854 1.0000
vt 0.5000 0.7187 1.0000
vt 0.5833 0.6854 1.0000
vt 0.5833 0.7187 1.0000
vt 0.6856 0.6854 1.0000
vt 0.6856 0.7187 1.0000
vt 1.1042 0.6854 1.0000
vt 1.1804 0.6854 1.0000
vt 1.2083 0.6854 1.0000
vt 0.8958 0.6854 1.0000
vt -0.1042 0.7187 1.0000
# 29 texture coords

g axle_slip2
usemtl wire_115115115
s 1
f 47/50/21 48/51/21 49/52/22 50/53/22 
f 51/54/23 52/55/23 48/51/21 47/50/21 
f 53/56/24 54/57/24 52/58/23 51/59/23 
s 2
f 55/60/25 56/61/25 54/57/25 53/56/25 
s 4
f 57/62/26 58/63/26 56/61/27 55/60/27 
f 59/64/28 60/65/28 58/63/26 57/62/26 
f 61/66/29 62/67/29 60/65/28 59/64/28 
f 63/68/30 64/69/30 62/67/29 61/66/29 
s 1
f 65/70/31 66/71/31 64/69/32 63/68/32 
f 67/72/33 68/73/33 66/71/31 65/70/31 
s 8
f 47/50/34 50/53/34 67/72/34 51/54/34 
f 53/74/34 51/54/34 67/72/34 55/75/34 
f 57/76/34 55/75/34 67/72/34 59/75/34 
f 61/74/34 59/75/34 67/72/34 63/54/34 
f 65/77/34 63/54/34 67/72/34 
f 48/78/35 52/58/35 54/57/35 56/61/35 
f 48/78/35 56/61/35 58/63/35 60/65/35 
f 48/78/35 60/65/35 62/67/35 64/69/35 
f 48/78/35 64/69/35 66/71/35 49/52/35 
f 66/71/35 68/73/35 49/52/35 
s 1
f 69/72/36 70/53/36 71/52/36 72/73/36 
s off
f 50/53/37 49/52/37 73/52/37 74/53/37 
f 67/72/38 50/53/38 74/53/38 75/72/38 
f 68/73/39 67/72/39 75/72/39 76/73/39 
f 49/52/39 68/73/39 76/73/39 73/52/39 
f 76/73/40 75/72/40 77/72/40 78/73/40 
f 75/72/41 74/53/41 79/53/41 77/72/41 
f 74/53/23 73/52/23 80/52/23 79/53/23 
f 73/52/35 76/73/35 78/73/35 80/52/35 
f 78/73/40 77/72/40 81/72/40 82/73/40 
f 77/72/42 79/53/42 83/53/42 81/72/42 
f 79/53/23 80/52/23 84/52/23 83/53/23 
f 80/52/43 78/73/43 82/73/43 84/52/43 
f 82/73/44 81/72/44 69/72/44 72/73/44 
f 81/72/45 83/53/45 70/53/45 69/72/45 
f 83/53/46 84/52/46 71/52/46 70/53/46 
f 84/52/47 82/73/47 72/73/47 71/52/47 
s 1
f 85/50/21 86/53/22 87/52/22 88/51/21 
f 89/54/23 85/50/21 88/51/21 90/55/23 
f 91/56/24 89/59/23 90/58/23 92/57/24 
s 2
f 93/60/25 91/56/25 92/57/25 94/61/25 
s 4
f 95/62/26 93/60/27 94/61/27 96/63/26 
f 97/64/28 95/62/26 96/63/26 98/65/28 
f 99/66/29 97/64/28 98/65/28 100/67/29 
f 101/68/30 99/66/29 100/67/29 102/69/30 
s 1
f 103/70/31 101/68/32 102/69/32 104/71/31 
f 105/72/33 103/70/31 104/71/31 106/73/33 
s 8
f 105/72/35 86/53/35 85/50/35 89/54/35 
f 105/72/35 89/54/35 91/74/35 93/75/35 
f 105/72/35 93/75/35 95/76/35 97/75/35 
f 105/72/35 97/75/35 99/74/35 101/54/35 
f 103/77/35 105/72/35 101/54/35 
f 87/52/34 106/73/34 104/71/34 88/78/34 
f 88/78/34 104/71/34 102/69/34 100/67/34 
f 88/78/34 100/67/34 98/65/34 96/63/34 
f 88/78/34 96/63/34 94/61/34 92/57/34 
f 88/78/34 92/57/34 90/58/34 
s 1
f 107/72/48 108/73/48 109/52/48 110/53/48 
s off
f 87/52/39 111/52/39 112/73/39 106/73/39 
f 111/52/37 87/52/37 86/53/37 113/53/37 
f 113/53/39 86/53/39 105/72/39 114/72/39 
f 114/72/39 105/72/39 106/73/39 112/73/39 
f 112/73/49 115/73/49 116/72/49 114/72/49 
f 114/72/50 116/72/50 117/53/50 113/53/50 
f 113/53/51 117/53/51 118/52/51 111/52/51 
f 111/52/52 118/52/52 115/73/52 112/73/52 
f 115/73/49 119/73/49 120/72/49 116/72/49 
f 116/72/53 120/72/53 121/53/53 117/53/53 
f 117/53/51 121/53/51 122/52/51 118/52/51 
f 118/52/54 122/52/54 119/73/54 115/73/54 
f 119/73/55 108/73/55 107/72/55 120/72/55 
f 120/72/56 107/72/56 110/53/56 121/53/56 
f 121/53/57 110/53/57 109/52/57 122/52/57 
f 122/52/58 109/52/58 108/73/58 119/73/58 
# 70 polygons - 4 triangles

#
# object Cylinder002
#

v  -1.4703 18.0722 2.5339
v  -1.4703 18.0722 -2.4661
v  1.4703 18.0722 -2.4661
v  1.4703 18.0722 2.5339
v  4.3543 18.6459 -2.4661
v  4.3543 18.6459 2.5339
v  7.0710 19.7712 -2.4661
v  7.0710 19.7712 2.5339
v  9.5159 21.4048 -2.4661
v  9.5159 21.4048 2.5339
v  11.5952 23.4841 -2.4661
v  11.5952 23.4841 2.5339
v  13.2288 25.9290 -2.4661
v  13.2288 25.9290 2.5339
v  -13.2288 25.9291 2.5339
v  -13.2288 25.9291 -2.4661
v  -11.5952 23.4841 -2.4661
v  -11.5952 23.4841 2.5339
v  -9.5159 21.4049 -2.4661
v  -9.5159 21.4049 2.5339
v  -7.0710 19.7712 -2.4661
v  -7.0710 19.7712 2.5339
v  -4.3543 18.6459 -2.4661
v  -4.3543 18.6459 2.5339
v  1.4605 18.1717 -2.4661
v  -1.4605 18.1718 -2.4661
v  -1.4605 18.1718 2.5339
v  1.4605 18.1717 2.5339
v  4.3252 18.7416 -2.4661
v  4.3252 18.7416 2.5339
v  7.0238 19.8594 -2.4661
v  7.0238 19.8594 2.5339
v  9.4525 21.4821 -2.4661
v  9.4525 21.4821 2.5339
v  11.5179 23.5475 -2.4661
v  11.5179 23.5475 2.5339
v  13.1457 25.9846 -2.4661
v  13.1457 25.9846 2.5339
v  -11.5179 23.5476 -2.4661
v  -13.1457 25.9846 -2.4661
v  -13.1457 25.9846 2.5339
v  -11.5179 23.5476 2.5339
v  -9.4525 21.4822 -2.4661
v  -9.4525 21.4822 2.5339
v  -7.0238 19.8594 -2.4661
v  -7.0238 19.8594 2.5339
v  -4.3253 18.7416 -2.4661
v  -4.3253 18.7416 2.5339
# 48 vertices

vn -0.0980 -0.9952 -0.0000
vn 0.0980 -0.9952 0.0000
vn 0.2903 -0.9569 0.0000
vn 0.4714 -0.8819 0.0000
vn 0.6344 -0.7730 0.0000
vn 0.7730 -0.6344 0.0000
vn 0.8315 -0.5556 0.0000
vn -0.8315 -0.5556 -0.0000
vn -0.7730 -0.6344 -0.0000
vn -0.6344 -0.7730 -0.0000
vn -0.4714 -0.8819 -0.0000
vn -0.2903 -0.9569 -0.0000
vn -0.0980 0.9952 -0.0000
vn 0.0980 0.9952 0.0000
vn -0.2903 0.9569 -0.0000
vn -0.4714 0.8819 -0.0000
vn -0.6344 0.7730 -0.0000
vn -0.7731 0.6343 -0.0000
vn -0.8316 0.5554 -0.0000
vn 0.7731 0.6343 0.0000
vn 0.8316 0.5554 0.0000
vn 0.6344 0.7730 0.0000
vn 0.4714 0.8819 0.0000
vn 0.2903 0.9569 0.0000
vn 0.5556 0.8315 0.0000
vn -0.0000 0.0000 1.0000
vn -0.5556 0.8315 -0.0000
vn 0.0000 -0.0000 -1.0000
# 28 vertex normals

vt 0.7344 1.0000 1.0000
vt 0.7344 0.0000 1.0000
vt 0.7656 0.0000 1.0000
vt 0.7656 1.0000 1.0000
vt 0.7969 0.0000 1.0000
vt 0.7969 1.0000 1.0000
vt 0.8281 0.0000 1.0000
vt 0.8281 1.0000 1.0000
vt 0.8594 0.0000 1.0000
vt 0.8594 1.0000 1.0000
vt 0.8906 0.0000 1.0000
vt 0.8906 1.0000 1.0000
vt 0.9219 0.0000 1.0000
vt 0.9219 1.0000 1.0000
vt 0.5781 1.0000 1.0000
vt 0.5781 0.0000 1.0000
vt 0.6094 0.0000 1.0000
vt 0.6094 1.0000 1.0000
vt 0.6406 0.0000 1.0000
vt 0.6406 1.0000 1.0000
vt 0.6719 0.0000 1.0000
vt 0.6719 1.0000 1.0000
vt 0.7031 0.0000 1.0000
vt 0.7031 1.0000 1.0000
# 24 texture coords

g Cylinder002
usemtl wire_176026026
s 8
f 123/79/59 124/80/59 125/81/60 126/82/60 
f 126/82/60 125/81/60 127/83/61 128/84/61 
f 128/84/61 127/83/61 129/85/62 130/86/62 
f 130/86/62 129/85/62 131/87/63 132/88/63 
f 132/88/63 131/87/63 133/89/64 134/90/64 
f 134/90/64 133/89/64 135/91/65 136/92/65 
f 137/93/66 138/94/66 139/95/67 140/96/67 
f 140/96/67 139/95/67 141/97/68 142/98/68 
f 142/98/68 141/97/68 143/99/69 144/100/69 
f 144/100/69 143/99/69 145/101/70 146/102/70 
f 146/102/70 145/101/70 124/80/59 123/79/59 
f 147/81/71 148/80/72 149/79/72 150/82/71 
f 151/83/73 147/81/71 150/82/71 152/84/73 
f 153/85/74 151/83/73 152/84/73 154/86/74 
f 155/87/75 153/85/74 154/86/74 156/88/75 
f 157/89/76 155/87/75 156/88/75 158/90/76 
f 159/91/77 157/89/76 158/90/76 160/92/77 
f 161/95/78 162/94/79 163/93/79 164/96/78 
f 165/97/80 161/95/78 164/96/78 166/98/80 
f 167/99/81 165/97/80 166/98/80 168/100/81 
f 169/101/82 167/99/81 168/100/81 170/102/82 
f 148/80/72 169/101/82 170/102/82 149/79/72 
s 2
f 159/91/83 160/92/83 136/92/83 135/91/83 
s 1
f 134/90/84 136/92/84 160/92/84 158/90/84 
f 132/88/84 134/90/84 158/90/84 156/88/84 
f 130/86/84 132/88/84 156/88/84 154/86/84 
f 128/84/84 130/86/84 154/86/84 152/84/84 
f 126/82/84 128/84/84 152/84/84 150/82/84 
f 123/79/84 126/82/84 150/82/84 149/79/84 
f 146/102/84 123/79/84 149/79/84 170/102/84 
f 144/100/84 146/102/84 170/102/84 168/100/84 
f 142/98/84 144/100/84 168/100/84 166/98/84 
f 140/96/84 142/98/84 166/98/84 164/96/84 
f 137/93/84 140/96/84 164/96/84 163/93/84 
s 2
f 163/93/85 162/94/85 138/94/85 137/93/85 
s 1
f 139/95/86 138/94/86 162/94/86 161/95/86 
f 157/89/86 159/91/86 135/91/86 133/89/86 
f 155/87/86 157/89/86 133/89/86 131/87/86 
f 153/85/86 155/87/86 131/87/86 129/85/86 
f 151/83/86 153/85/86 129/85/86 127/83/86 
f 147/81/86 151/83/86 127/83/86 125/81/86 
f 148/80/86 147/81/86 125/81/86 124/80/86 
f 169/101/86 148/80/86 124/80/86 145/101/86 
f 167/99/86 169/101/86 145/101/86 143/99/86 
f 165/97/86 167/99/86 143/99/86 141/97/86 
f 161/95/86 165/97/86 141/97/86 139/95/86 
# 46 polygons

