# 3ds Max Wavefront OBJ Exporter v0.97b - (c)2007 guruware
# File Created: 15.03.2015 22:43:18

mtllib table_001.mtl

#
# object Box001
#

v  25.0000 2.0000 -17.5000
v  25.0000 2.0000 17.5000
v  25.0000 0.0000 17.5000
v  25.0000 0.0000 -17.5000
v  -25.0000 2.0000 17.5000
v  -25.0000 2.0000 -17.5000
v  -25.0000 0.0000 -17.5000
v  -25.0000 0.0000 17.5000
v  24.5000 -25.0000 17.0000
v  21.5000 -25.0000 17.0000
v  21.5000 -25.0000 15.2000
v  24.5000 -25.0000 15.2000
v  21.5000 -25.0000 -17.0000
v  24.5000 -25.0000 -17.0000
v  24.5000 -25.0000 -15.2000
v  21.5000 -25.0000 -15.2000
v  -24.5000 -25.0000 -17.0000
v  -21.5000 -25.0000 -17.0000
v  -21.5000 -25.0000 -15.2000
v  -24.5000 -25.0000 -15.2000
v  -21.5000 -25.0000 17.0000
v  -24.5000 -25.0000 17.0000
v  -24.5000 -25.0000 15.2000
v  -21.5000 -25.0000 15.2000
v  -24.5000 0.0000 -17.0000
v  -24.5000 0.0000 -15.2000
v  -21.5000 0.0000 -15.2000
v  -21.5000 0.0000 -17.0000
v  24.5000 0.0000 -17.0000
v  21.5000 0.0000 -17.0000
v  21.5000 0.0000 -15.2000
v  24.5000 0.0000 -15.2000
v  21.5000 0.0000 15.2000
v  24.5000 0.0000 17.0000
v  24.5000 0.0000 15.2000
v  -21.5000 0.0000 15.2000
v  21.5000 0.0000 17.0000
v  -24.5000 0.0000 17.0000
v  -21.5000 0.0000 17.0000
v  -24.5000 0.0000 15.2000
# 40 vertices

vn 1.0000 0.0000 -0.0000
vn -1.0000 0.0000 -0.0000
vn 0.0000 1.0000 -0.0000
vn 0.0000 0.0000 1.0000
vn 0.0000 0.0000 -1.0000
vn 0.0000 -1.0000 -0.0000
# 6 vertex normals

vt 1.0000 1.0000 0.0000
vt 0.0000 1.0000 0.0000
vt 0.0000 0.0000 0.0000
vt 1.0000 0.0000 0.0000
vt 0.0800 0.0000 0.0000
vt 0.0800 0.0800 0.0000
vt 0.0000 0.0800 0.0000
vt 0.0800 1.0000 0.0000
vt 0.0000 0.9200 0.0000
vt 0.0800 0.9200 0.0000
vt 0.9200 1.0000 0.0000
vt 0.9200 0.9200 0.0000
vt 1.0000 0.9200 0.0000
vt 0.9200 0.0000 0.0000
vt 1.0000 0.0800 0.0000
vt 0.9200 0.0800 0.0000
# 16 texture coords

g Box001
usemtl wire_108008136
s 16
f 1/1/1 2/2/1 3/3/1 4/4/1 
s 64
f 5/1/2 6/2/2 7/3/2 8/4/2 
s 4
f 1/1/3 6/2/3 5/3/3 2/4/3 
s 8
f 3/4/4 2/1/4 5/2/4 8/3/4 
s 32
f 7/4/5 6/1/5 1/2/5 4/3/5 
s 2
f 9/3/6 10/5/6 11/6/6 12/7/6 
f 13/8/6 14/2/6 15/9/6 16/10/6 
f 17/1/6 18/11/6 19/12/6 20/13/6 
f 21/14/6 22/4/6 23/15/6 24/16/6 
f 7/1/6 25/1/6 26/13/3 27/12/1 
f 28/11/3 25/1/6 7/1/6 27/12/1 
f 7/1/6 4/2/6 29/2/6 30/8/6 
f 7/1/6 30/8/6 31/10/6 
f 27/12/6 7/1/6 31/10/6 
f 32/9/6 29/2/6 4/2/6 3/3/6 
f 31/10/6 32/9/6 3/3/6 33/6/6 
f 3/3/6 34/3/6 35/7/3 33/6/6 
f 27/12/1 31/10/6 33/6/6 36/16/6 
f 37/5/3 34/3/6 3/3/6 
f 33/6/3 37/5/3 3/3/3 
f 3/3/6 8/4/6 38/4/6 39/14/6 
f 3/3/6 39/14/6 36/16/6 
f 33/6/6 3/3/6 36/16/6 
f 7/1/6 27/12/6 36/16/6 
f 7/1/6 36/16/6 40/15/6 8/4/6 
f 8/4/6 40/15/6 38/4/6 
s off
f 35/7/1 34/3/1 9/3/1 12/7/1 
f 34/3/4 37/5/4 10/5/4 9/3/4 
f 37/5/2 33/6/2 11/6/2 10/5/2 
f 33/6/5 35/7/5 12/7/5 11/6/5 
f 31/10/2 30/8/2 13/8/2 16/10/2 
f 30/8/5 29/2/5 14/2/5 13/8/5 
f 29/2/1 32/9/1 15/9/1 14/2/1 
f 32/9/4 31/10/4 16/10/4 15/9/4 
f 26/13/2 25/1/2 17/1/2 20/13/2 
f 25/1/5 28/11/5 18/11/5 17/1/5 
f 28/11/1 27/12/1 19/12/1 18/11/1 
f 27/12/4 26/13/4 20/13/4 19/12/4 
f 36/16/1 39/14/1 21/14/1 24/16/1 
f 39/14/4 38/4/4 22/4/4 21/14/4 
f 38/4/2 40/15/2 23/15/2 22/4/2 
f 40/15/5 36/16/5 24/16/5 23/15/5 
# 34 polygons - 8 triangles

