# 3ds Max Wavefront OBJ Exporter v0.97b - (c)2007 guruware
# File Created: 25.03.2015 00:36:08

mtllib healthkit_001.mtl

#
# object Box001
#

v  -17.0000 0.0000 2.0000
v  -17.0000 0.0000 -2.0000
v  17.0000 0.0000 -2.0000
v  17.0000 0.0000 2.0000
v  -17.0000 40.0000 2.0000
v  17.0000 40.0000 2.0000
v  17.0000 40.0000 -2.0000
v  -17.0000 40.0000 -2.0000
v  -17.0000 8.0000 11.6640
v  17.0000 8.0000 11.6640
v  17.0000 32.0000 11.6640
v  -17.0000 32.0000 11.6640
v  25.0000 8.0000 2.0000
v  25.0000 8.0000 -2.0000
v  25.0000 32.0000 -2.0000
v  25.0000 32.0000 2.0000
v  17.0000 8.0000 -11.6640
v  -17.0000 8.0000 -11.6640
v  -17.0000 32.0000 -11.6640
v  17.0000 32.0000 -11.6640
v  -25.0000 8.0000 -2.0000
v  -25.0000 8.0000 2.0000
v  -25.0000 32.0000 2.0000
v  -25.0000 32.0000 -2.0000
v  -18.5313 4.7187 9.5000
v  -17.0000 4.5000 9.5000
v  18.5313 0.5000 5.2813
v  17.0000 0.5000 5.5000
v  -24.5000 4.7187 -3.5313
v  -24.5000 4.5000 -2.0000
v  20.2813 0.5000 -3.5313
v  20.5000 0.5000 -2.0000
v  -20.2813 33.5313 9.5000
v  -20.5000 32.0000 9.5000
v  24.5000 33.5313 5.2813
v  24.5000 32.0000 5.5000
v  -24.5000 33.5313 -5.2813
v  -24.5000 32.0000 -5.5000
v  20.2813 33.5313 -9.5000
v  20.5000 32.0000 -9.5000
v  -20.5000 0.5000 -2.0000
v  -20.5000 0.5000 2.0000
v  17.0000 0.5000 -5.5000
v  -17.0000 0.5000 -5.5000
v  20.5000 0.5000 2.0000
v  -17.0000 0.5000 5.5000
v  17.0000 39.5000 5.5000
v  -17.0000 39.5000 5.5000
v  20.5000 39.5000 -2.0000
v  20.5000 39.5000 2.0000
v  -17.0000 39.5000 -5.5000
v  17.0000 39.5000 -5.5000
v  -20.5000 39.5000 2.0000
v  -20.5000 39.5000 -2.0000
v  20.5000 32.0000 9.5000
v  20.5000 8.0000 9.5000
v  -20.5000 8.0000 9.5000
v  24.5000 32.0000 -5.5000
v  24.5000 8.0000 -5.5000
v  -20.5000 32.0000 -9.5000
v  -20.5000 8.0000 -9.5000
v  -20.2813 6.4687 9.5000
v  -22.6250 5.3750 8.0000
v  -23.0000 8.0000 8.0000
v  -24.0312 4.7187 5.5000
v  -24.5000 8.0000 5.5000
v  -24.5000 4.5000 2.0000
v  -19.6250 5.3750 9.5000
v  -21.5000 3.5000 8.0000
v  -22.6250 2.3750 5.5000
v  -23.0000 2.0000 2.0000
v  -19.6250 2.3750 8.0000
v  -20.2813 0.9687 5.5000
v  -17.0000 2.0000 8.0000
v  20.2813 0.5000 3.5313
v  22.6250 2.0000 4.6250
v  23.0000 2.0000 2.0000
v  24.0313 4.5000 5.2813
v  24.5000 4.5000 2.0000
v  24.5000 8.0000 5.5000
v  19.6250 0.5000 4.6250
v  21.5000 2.0000 6.5000
v  22.6250 4.5000 7.6250
v  23.0000 8.0000 8.0000
v  19.6250 2.0000 7.6250
v  20.2813 4.5000 9.0313
v  17.0000 2.0000 8.0000
v  17.0000 4.5000 9.5000
v  -24.5000 8.0000 -5.5000
v  -24.5000 6.4687 -5.2813
v  -23.0000 5.3750 -7.6250
v  -23.0000 8.0000 -8.0000
v  -20.5000 4.7187 -9.0312
v  -17.0000 4.5000 -9.5000
v  -24.5000 5.3750 -4.6250
v  -23.0000 3.5000 -6.5000
v  -20.5000 2.3750 -7.6250
v  -17.0000 2.0000 -8.0000
v  -23.0000 2.3750 -4.6250
v  -20.5000 0.9687 -5.2813
v  -23.0000 2.0000 -2.0000
v  18.5313 0.5000 -5.2813
v  19.6250 2.0000 -7.6250
v  17.0000 2.0000 -8.0000
v  20.2813 4.5000 -9.0313
v  17.0000 4.5000 -9.5000
v  20.5000 8.0000 -9.5000
v  19.6250 0.5000 -4.6250
v  21.5000 2.0000 -6.5000
v  22.6250 4.5000 -7.6250
v  23.0000 8.0000 -8.0000
v  22.6250 2.0000 -4.6250
v  24.0313 4.5000 -5.2813
v  23.0000 2.0000 -2.0000
v  24.5000 4.5000 -2.0000
v  -17.0000 35.5000 9.5000
v  -18.5313 35.2813 9.5000
v  -19.6250 37.6250 8.0000
v  -17.0000 38.0000 8.0000
v  -20.2813 39.0313 5.5000
v  -19.6250 34.6250 9.5000
v  -21.5000 36.5000 8.0000
v  -22.6250 37.6250 5.5000
v  -23.0000 38.0000 2.0000
v  -22.6250 34.6250 8.0000
v  -24.0313 35.2813 5.5000
v  -24.5000 35.5000 2.0000
v  -23.0000 32.0000 8.0000
v  -24.5000 32.0000 5.5000
v  24.5000 35.5000 2.0000
v  24.5000 35.2813 3.5313
v  23.0000 37.6250 4.6250
v  23.0000 38.0000 2.0000
v  20.5000 39.0313 5.2813
v  24.5000 34.6250 4.6250
v  23.0000 36.5000 6.5000
v  20.5000 37.6250 7.6250
v  17.0000 38.0000 8.0000
v  23.0000 34.6250 7.6250
v  20.5000 35.2813 9.0313
v  17.0000 35.5000 9.5000
v  23.0000 32.0000 8.0000
v  -24.5000 35.5000 -2.0000
v  -24.5000 35.2813 -3.5313
v  -23.0000 37.6250 -4.6250
v  -23.0000 38.0000 -2.0000
v  -20.5000 39.0313 -5.2813
v  -24.5000 34.6250 -4.6250
v  -23.0000 36.5000 -6.5000
v  -20.5000 37.6250 -7.6250
v  -17.0000 38.0000 -8.0000
v  -23.0000 34.6250 -7.6250
v  -20.5000 35.2813 -9.0313
v  -17.0000 35.5000 -9.5000
v  -23.0000 32.0000 -8.0000
v  17.0000 35.5000 -9.5000
v  18.5313 35.2813 -9.5000
v  19.6250 37.6250 -8.0000
v  17.0000 38.0000 -8.0000
v  20.2813 39.0313 -5.5000
v  19.6250 34.6250 -9.5000
v  21.5000 36.5000 -8.0000
v  22.6250 37.6250 -5.5000
v  23.0000 38.0000 -2.0000
v  22.6250 34.6250 -8.0000
v  24.0313 35.2813 -5.5000
v  24.5000 35.5000 -2.0000
v  23.0000 32.0000 -8.0000
# 168 vertices

vn -0.0705 -0.9950 0.0705
vn -0.0705 -0.9950 -0.0705
vn 0.0572 -0.9967 -0.0572
vn 0.0572 -0.9967 0.0572
vn -0.0705 0.9950 0.0705
vn 0.0705 0.9950 0.0705
vn 0.0705 0.9950 -0.0705
vn -0.0705 0.9950 -0.0705
vn -0.2222 -0.2222 0.9493
vn 0.2239 -0.2233 0.9487
vn 0.2233 0.2239 0.9487
vn -0.2222 0.2222 0.9493
vn 0.9950 -0.0705 0.0705
vn 0.9950 -0.0705 -0.0705
vn 0.9950 0.0705 -0.0705
vn 0.9967 0.0572 0.0572
vn 0.2552 -0.2552 -0.9326
vn -0.2552 -0.2552 -0.9326
vn -0.2233 0.2239 -0.9487
vn 0.2222 0.2222 -0.9493
vn -0.9967 -0.0572 -0.0572
vn -0.9950 -0.0705 0.0705
vn -0.9950 0.0705 0.0705
vn -0.9967 0.0572 -0.0572
vn -0.1688 -0.4797 0.8610
vn -0.0371 -0.5196 0.8536
vn 0.1138 -0.9374 0.3293
vn 0.0249 -0.9393 0.3423
vn -0.9374 -0.3293 -0.1138
vn -0.9393 -0.3423 -0.0249
vn 0.3293 -0.9374 -0.1138
vn 0.3423 -0.9393 -0.0249
vn -0.4797 0.1688 0.8610
vn -0.5196 0.0371 0.8536
vn 0.9374 0.1138 0.3293
vn 0.9393 0.0249 0.3423
vn -0.9374 0.1138 -0.3293
vn -0.9393 0.0249 -0.3423
vn 0.4797 0.1688 -0.8610
vn 0.5196 0.0371 -0.8536
vn -0.3311 -0.9412 -0.0664
vn -0.3345 -0.9396 0.0723
vn 0.0249 -0.9393 -0.3423
vn -0.0723 -0.9396 -0.3345
vn 0.3423 -0.9393 0.0249
vn -0.0664 -0.9412 0.3311
vn 0.0723 0.9396 0.3345
vn -0.0664 0.9412 0.3311
vn 0.3345 0.9396 -0.0723
vn 0.3311 0.9412 0.0664
vn -0.0723 0.9396 -0.3345
vn 0.0664 0.9412 -0.3311
vn -0.3345 0.9396 0.0723
vn -0.3311 0.9412 -0.0664
vn 0.5194 0.0607 0.8524
vn 0.5188 -0.0729 0.8518
vn -0.5196 -0.0371 0.8536
vn 0.9412 0.0664 -0.3311
vn 0.9396 -0.0723 -0.3345
vn -0.5194 0.0607 -0.8524
vn -0.4728 -0.1164 -0.8735
vn -0.4797 -0.1688 0.8610
vn -0.6723 -0.2374 0.7012
vn -0.7115 -0.0507 0.7009
vn -0.8875 -0.3166 0.3348
vn -0.9412 -0.0664 0.3311
vn -0.9396 -0.3345 0.0723
vn -0.3516 -0.3516 0.8676
vn -0.5001 -0.5001 0.7069
vn -0.6648 -0.6648 0.3409
vn -0.7052 -0.7052 0.0743
vn -0.2374 -0.6723 0.7012
vn -0.3166 -0.8875 0.3348
vn -0.0507 -0.7115 0.7009
vn 0.3293 -0.9374 0.1138
vn 0.6723 -0.7012 0.2374
vn 0.7115 -0.7009 0.0507
vn 0.8875 -0.3348 0.3166
vn 0.9412 -0.3311 0.0664
vn 0.9396 -0.0723 0.3345
vn 0.2437 -0.9387 0.2437
vn 0.5001 -0.7069 0.5001
vn 0.6648 -0.3409 0.6648
vn 0.7052 -0.0743 0.7052
vn 0.2374 -0.7012 0.6723
vn 0.3644 -0.3858 0.8476
vn 0.0507 -0.7009 0.7115
vn 0.0607 -0.5194 0.8524
vn -0.9393 -0.0249 -0.3423
vn -0.9374 -0.1138 -0.3293
vn -0.7012 -0.2374 -0.6723
vn -0.7009 -0.0507 -0.7115
vn -0.3348 -0.3166 -0.8875
vn -0.1221 -0.4758 -0.8710
vn -0.9387 -0.2437 -0.2437
vn -0.7069 -0.5001 -0.5001
vn -0.3409 -0.6648 -0.6648
vn -0.0743 -0.7052 -0.7052
vn -0.7012 -0.6723 -0.2374
vn -0.3348 -0.8875 -0.3166
vn -0.7009 -0.7115 -0.0507
vn 0.1138 -0.9374 -0.3293
vn 0.2374 -0.7012 -0.6723
vn 0.0507 -0.7009 -0.7115
vn 0.3166 -0.3348 -0.8875
vn 0.1164 -0.4728 -0.8735
vn 0.4758 -0.1221 -0.8710
vn 0.2437 -0.9387 -0.2437
vn 0.5001 -0.7069 -0.5001
vn 0.6648 -0.3409 -0.6648
vn 0.7052 -0.0743 -0.7052
vn 0.6723 -0.7012 -0.2374
vn 0.8875 -0.3348 -0.3166
vn 0.7115 -0.7009 -0.0507
vn 0.9412 -0.3311 -0.0664
vn -0.0371 0.5196 0.8536
vn -0.1688 0.4797 0.8610
vn -0.2374 0.6723 0.7012
vn -0.0507 0.7115 0.7009
vn -0.3166 0.8875 0.3348
vn -0.3516 0.3516 0.8676
vn -0.5001 0.5001 0.7069
vn -0.6648 0.6648 0.3409
vn -0.7052 0.7052 0.0743
vn -0.6723 0.2374 0.7012
vn -0.8875 0.3166 0.3348
vn -0.9396 0.3345 0.0723
vn -0.7115 0.0507 0.7009
vn -0.9412 0.0664 0.3311
vn 0.9393 0.3423 0.0249
vn 0.9374 0.3293 0.1138
vn 0.7012 0.6723 0.2374
vn 0.7009 0.7115 0.0507
vn 0.3348 0.8875 0.3166
vn 0.9387 0.2437 0.2437
vn 0.7069 0.5001 0.5001
vn 0.3409 0.6648 0.6648
vn 0.0743 0.7052 0.7052
vn 0.7012 0.2374 0.6723
vn 0.3858 0.3644 0.8476
vn 0.0729 0.5188 0.8518
vn 0.7009 0.0507 0.7115
vn -0.9393 0.3423 -0.0249
vn -0.9374 0.3293 -0.1138
vn -0.7012 0.6723 -0.2374
vn -0.7009 0.7115 -0.0507
vn -0.3348 0.8875 -0.3166
vn -0.9387 0.2437 -0.2437
vn -0.7069 0.5001 -0.5001
vn -0.3409 0.6648 -0.6648
vn -0.0743 0.7052 -0.7052
vn -0.7012 0.2374 -0.6723
vn -0.3858 0.3644 -0.8476
vn -0.0729 0.5188 -0.8518
vn -0.7009 0.0507 -0.7115
vn 0.0371 0.5196 -0.8536
vn 0.1688 0.4797 -0.8610
vn 0.2374 0.6723 -0.7012
vn 0.0507 0.7115 -0.7009
vn 0.3166 0.8875 -0.3348
vn 0.3516 0.3516 -0.8676
vn 0.5001 0.5001 -0.7069
vn 0.6648 0.6648 -0.3409
vn 0.7052 0.7052 -0.0743
vn 0.6723 0.2374 -0.7012
vn 0.8875 0.3166 -0.3348
vn 0.9396 0.3345 -0.0723
vn 0.7115 0.0507 -0.7009
# 168 vertex normals

vt 0.8400 0.4000 0.0000
vt 0.8400 0.6000 0.0000
vt 0.1600 0.6000 0.0000
vt 0.1600 0.4000 0.0000
vt 0.1600 0.2000 0.0000
vt 0.8400 0.2000 0.0000
vt 0.8400 0.8000 0.0000
vt 0.1600 0.8000 0.0000
vt 0.4000 0.2000 0.0000
vt 0.6000 0.2000 0.0000
vt 0.6000 0.8000 0.0000
vt 0.4000 0.8000 0.0000
vt 0.0000 0.0000 0.0000
vt 0.0000 1.0000 0.0000
vt 0.4000 0.6243 0.0000
vt 0.4000 0.7657 0.0000
vt 0.6000 0.7657 0.0000
vt 0.6000 0.6243 0.0000
vt 0.1600 0.0817 0.0000
vt 0.1600 0.0422 0.0000
vt 0.8400 0.0422 0.0000
vt 0.8400 0.0817 0.0000
vt 0.8400 0.9183 0.0000
vt 0.8400 0.9578 0.0000
vt 0.1600 0.9578 0.0000
vt 0.1600 0.9183 0.0000
vt 0.6000 0.3757 0.0000
vt 0.6000 0.2343 0.0000
vt 0.4000 0.2343 0.0000
vt 0.4000 0.3757 0.0000
vt 0.4177 0.8000 0.0000
vt 0.4236 0.8000 0.0000
vt 0.4236 0.2000 0.0000
vt 0.4177 0.2000 0.0000
vt 0.5823 0.2000 0.0000
vt 0.5764 0.2000 0.0000
vt 0.5764 0.8000 0.0000
vt 0.5823 0.8000 0.0000
vt 0.6154 0.8000 0.0000
vt 0.7672 0.8000 0.0000
vt 0.7672 0.2000 0.0000
vt 0.6154 0.2000 0.0000
vt 0.0729 0.1487 0.0000
vt -0.0285 0.1948 0.0000
vt -0.1442 0.3383 0.0000
vt -0.1713 0.3396 0.0000
vt -0.2741 0.5791 0.0000
vt -0.1371 0.2000 0.0000
vt -0.1713 0.1604 0.0000
vt -0.2741 0.2209 0.0000
vt 0.0850 0.2666 0.0000
vt 0.0199 0.2664 0.0000
vt -0.0352 0.3995 0.0000
vt -0.0577 0.3787 0.0000
vt -0.0803 0.6657 0.0000
vt -0.0702 0.1832 0.0000
vt -0.1177 0.0794 0.0000
vt -0.2004 0.0672 0.0000
vt 0.2200 0.1271 0.0000
vt 0.0799 0.1082 0.0000
vt -0.0202 0.1435 0.0000
vt -0.0352 0.1269 0.0000
vt -0.0804 0.2328 0.0000
vt 0.0198 0.0418 0.0000
vt 0.0848 -0.0224 0.0000
vt 0.1597 -0.0657 0.0000
vt 0.0775 0.7708 0.0000
vt -0.0101 0.8832 0.0000
vt -0.1027 0.9372 0.0000
vt -0.1177 0.9206 0.0000
vt -0.2004 0.9328 0.0000
vt -0.0702 0.8168 0.0000
vt -0.0577 0.6213 0.0000
vt -0.0803 0.3343 0.0000
vt 0.0729 0.8737 0.0000
vt -0.0285 0.8948 0.0000
vt -0.1442 0.8633 0.0000
vt -0.1713 0.8396 0.0000
vt -0.2741 0.7791 0.0000
vt -0.1371 0.8000 0.0000
vt -0.1713 0.6604 0.0000
vt -0.2741 0.4209 0.0000
vt 0.2350 0.8916 0.0000
vt 0.1399 0.9664 0.0000
vt 0.1148 1.0245 0.0000
vt 0.0848 1.0224 0.0000
vt 0.1597 1.0657 0.0000
vt 0.0198 0.9582 0.0000
vt -0.0352 0.8731 0.0000
vt -0.0804 0.7672 0.0000
vt 0.4000 0.4828 0.0000
vt 0.6000 0.4828 0.0000
vt 0.4000 0.3414 0.0000
vt 0.6000 0.3414 0.0000
vt 0.1600 0.1211 0.0000
vt 0.8400 0.1211 0.0000
vt 0.1600 0.1606 0.0000
vt 0.8400 0.1606 0.0000
vt 0.8400 0.8789 0.0000
vt 0.1600 0.8789 0.0000
vt 0.8400 0.8394 0.0000
vt 0.1600 0.8394 0.0000
vt 0.6000 0.5172 0.0000
vt 0.4000 0.5172 0.0000
vt 0.6000 0.6586 0.0000
vt 0.4000 0.6586 0.0000
vt 0.4118 0.8000 0.0000
vt 0.4118 0.2000 0.0000
vt 0.4059 0.8000 0.0000
vt 0.4059 0.2000 0.0000
vt 0.5882 0.2000 0.0000
vt 0.5882 0.8000 0.0000
vt 0.5941 0.2000 0.0000
vt 0.5941 0.8000 0.0000
vt 0.4636 0.8000 0.0000
vt 0.4636 0.2000 0.0000
vt 0.3118 0.8000 0.0000
vt 0.3118 0.2000 0.0000
# 118 texture coords

g Box001
usemtl wire_177028149
s 1
f 1/1/1 2/2/2 3/3/3 4/4/4 
f 5/4/5 6/1/6 7/2/7 8/3/8 
f 9/5/9 10/6/10 11/7/11 12/8/12 
f 13/9/13 14/10/14 15/11/15 16/12/16 
f 17/5/17 18/6/18 19/7/19 20/8/20 
f 21/9/21 22/10/22 23/11/23 24/12/24 
f 9/5/9 25/13/25 26/13/26 
f 4/4/4 27/13/27 28/13/28 
f 21/9/21 29/13/29 30/13/30 
f 3/3/3 31/14/31 32/14/32 
f 12/8/12 33/14/33 34/14/34 
f 16/12/16 35/14/35 36/14/36 
f 24/12/24 37/14/37 38/14/38 
f 20/8/20 39/14/39 40/14/40 
f 41/15/41 2/16/2 1/17/1 42/18/42 
f 43/19/43 3/20/3 2/21/2 44/22/44 
f 45/15/45 4/16/4 3/17/3 32/18/32 
f 46/19/46 1/20/1 4/21/4 28/22/28 
f 47/23/47 6/24/6 5/25/5 48/26/48 
f 49/27/49 7/28/7 6/29/6 50/30/50 
f 51/23/51 8/24/8 7/25/7 52/26/52 
f 53/27/53 5/28/5 8/29/8 54/30/54 
f 55/31/55 11/32/11 10/33/10 56/34/56 
f 57/35/57 9/36/9 12/37/12 34/38/34 
f 58/39/58 15/40/15 14/41/14 59/42/59 
f 60/31/60 19/32/19 18/33/18 61/34/61 
f 9/5/9 57/43/57 62/13/62 
f 63/13/63 62/13/62 57/43/57 64/44/64 
f 65/13/65 63/13/63 64/44/64 66/45/66 
f 67/46/67 65/13/65 66/45/66 22/47/22 
f 9/5/9 62/13/62 68/13/68 
f 69/13/69 68/13/68 62/13/62 63/13/63 
f 70/13/70 69/13/69 63/13/63 65/13/65 
f 71/48/71 70/13/70 65/13/65 67/46/67 
f 9/5/9 68/13/68 25/13/25 
f 72/13/72 25/13/25 68/13/68 69/13/69 
f 73/13/73 72/13/72 69/13/69 70/13/70 
f 42/49/42 73/13/73 70/13/70 71/48/71 
f 74/13/74 26/13/26 25/13/25 72/13/72 
f 46/13/46 74/13/74 72/13/72 73/13/73 
f 1/50/1 46/13/46 73/13/73 42/49/42 
f 4/4/4 45/51/45 75/13/75 
f 76/13/76 75/13/75 45/51/45 77/52/77 
f 78/13/78 76/13/76 77/52/77 79/53/79 
f 80/54/80 78/13/78 79/53/79 13/55/13 
f 4/4/4 75/13/75 81/13/81 
f 82/13/82 81/13/81 75/13/75 76/13/76 
f 83/13/83 82/13/82 76/13/76 78/13/78 
f 84/56/84 83/13/83 78/13/78 80/54/80 
f 4/4/4 81/13/81 27/13/27 
f 85/13/85 27/13/27 81/13/81 82/13/82 
f 86/13/86 85/13/85 82/13/82 83/13/83 
f 56/57/56 86/13/86 83/13/83 84/56/84 
f 87/13/87 28/13/28 27/13/27 85/13/85 
f 88/13/88 87/13/87 85/13/85 86/13/86 
f 10/58/10 88/13/88 86/13/86 56/57/56 
f 21/9/21 89/59/89 90/13/90 
f 91/13/91 90/13/90 89/59/89 92/60/92 
f 93/13/93 91/13/91 92/60/92 61/61/61 
f 94/62/94 93/13/93 61/61/61 18/63/18 
f 21/9/21 90/13/90 95/13/95 
f 96/13/96 95/13/95 90/13/90 91/13/91 
f 97/13/97 96/13/96 91/13/91 93/13/93 
f 98/64/98 97/13/97 93/13/93 94/62/94 
f 21/9/21 95/13/95 29/13/29 
f 99/13/99 29/13/29 95/13/95 96/13/96 
f 100/13/100 99/13/99 96/13/96 97/13/97 
f 44/65/44 100/13/100 97/13/97 98/64/98 
f 101/13/101 30/13/30 29/13/29 99/13/99 
f 41/13/41 101/13/101 99/13/99 100/13/100 
f 2/66/2 41/13/41 100/13/100 44/65/44 
f 3/3/3 43/67/43 102/14/102 
f 103/14/103 102/14/102 43/67/43 104/68/104 
f 105/14/105 103/14/103 104/68/104 106/69/106 
f 107/70/107 105/14/105 106/69/106 17/71/17 
f 3/3/3 102/14/102 108/14/108 
f 109/14/109 108/14/108 102/14/102 103/14/103 
f 110/14/110 109/14/109 103/14/103 105/14/105 
f 111/72/111 110/14/110 105/14/105 107/70/107 
f 3/3/3 108/14/108 31/14/31 
f 112/14/112 31/14/31 108/14/108 109/14/109 
f 113/14/113 112/14/112 109/14/109 110/14/110 
f 59/73/59 113/14/113 110/14/110 111/72/111 
f 114/14/114 32/14/32 31/14/31 112/14/112 
f 115/14/115 114/14/114 112/14/112 113/14/113 
f 14/74/14 115/14/115 113/14/113 59/73/59 
f 12/8/12 116/75/116 117/14/117 
f 118/14/118 117/14/117 116/75/116 119/76/119 
f 120/14/120 118/14/118 119/76/119 48/77/48 
f 53/78/53 120/14/120 48/77/48 5/79/5 
f 12/8/12 117/14/117 121/14/121 
f 122/14/122 121/14/121 117/14/117 118/14/118 
f 123/14/123 122/14/122 118/14/118 120/14/120 
f 124/80/124 123/14/123 120/14/120 53/78/53 
f 12/8/12 121/14/121 33/14/33 
f 125/14/125 33/14/33 121/14/121 122/14/122 
f 126/14/126 125/14/125 122/14/122 123/14/123 
f 127/81/127 126/14/126 123/14/123 124/80/124 
f 128/14/128 34/14/34 33/14/33 125/14/125 
f 129/14/129 128/14/128 125/14/125 126/14/126 
f 23/82/23 129/14/129 126/14/126 127/81/127 
f 16/12/16 130/83/130 131/14/131 
f 132/14/132 131/14/131 130/83/130 133/84/133 
f 134/14/134 132/14/132 133/84/133 50/85/50 
f 47/86/47 134/14/134 50/85/50 6/87/6 
f 16/12/16 131/14/131 135/14/135 
f 136/14/136 135/14/135 131/14/131 132/14/132 
f 137/14/137 136/14/136 132/14/132 134/14/134 
f 138/88/138 137/14/137 134/14/134 47/86/47 
f 16/12/16 135/14/135 35/14/35 
f 139/14/139 35/14/35 135/14/135 136/14/136 
f 140/14/140 139/14/139 136/14/136 137/14/137 
f 141/89/141 140/14/140 137/14/137 138/88/138 
f 142/14/142 36/14/36 35/14/35 139/14/139 
f 55/14/55 142/14/142 139/14/139 140/14/140 
f 11/90/11 55/14/55 140/14/140 141/89/141 
f 24/12/24 143/83/143 144/14/144 
f 145/14/145 144/14/144 143/83/143 146/84/146 
f 147/14/147 145/14/145 146/84/146 54/85/54 
f 51/86/51 147/14/147 54/85/54 8/87/8 
f 24/12/24 144/14/144 148/14/148 
f 149/14/149 148/14/148 144/14/144 145/14/145 
f 150/14/150 149/14/149 145/14/145 147/14/147 
f 151/88/151 150/14/150 147/14/147 51/86/51 
f 24/12/24 148/14/148 37/14/37 
f 152/14/152 37/14/37 148/14/148 149/14/149 
f 153/14/153 152/14/152 149/14/149 150/14/150 
f 154/89/154 153/14/153 150/14/150 151/88/151 
f 155/14/155 38/14/38 37/14/37 152/14/152 
f 60/14/60 155/14/155 152/14/152 153/14/153 
f 19/90/19 60/14/60 153/14/153 154/89/154 
f 20/8/20 156/75/156 157/14/157 
f 158/14/158 157/14/157 156/75/156 159/76/159 
f 160/14/160 158/14/158 159/76/159 52/77/52 
f 49/78/49 160/14/160 52/77/52 7/79/7 
f 20/8/20 157/14/157 161/14/161 
f 162/14/162 161/14/161 157/14/157 158/14/158 
f 163/14/163 162/14/162 158/14/158 160/14/160 
f 164/80/164 163/14/163 160/14/160 49/78/49 
f 20/8/20 161/14/161 39/14/39 
f 165/14/165 39/14/39 161/14/161 162/14/162 
f 166/14/166 165/14/165 162/14/162 163/14/163 
f 167/81/167 166/14/166 163/14/163 164/80/164 
f 168/14/168 40/14/40 39/14/39 165/14/165 
f 58/14/58 168/14/168 165/14/165 166/14/166 
f 15/82/15 58/14/58 166/14/166 167/81/167 
f 101/91/101 41/15/41 42/18/42 71/92/71 
f 30/93/30 101/91/101 71/92/71 67/94/67 
f 21/9/21 30/93/30 67/94/67 22/10/22 
f 104/95/104 43/19/43 44/22/44 98/96/98 
f 106/97/106 104/95/104 98/96/98 94/98/94 
f 17/5/17 106/97/106 94/98/94 18/6/18 
f 77/91/77 45/15/45 32/18/32 114/92/114 
f 79/93/79 77/91/77 114/92/114 115/94/115 
f 13/9/13 79/93/79 115/94/115 14/10/14 
f 74/95/74 46/19/46 28/22/28 87/96/87 
f 26/97/26 74/95/74 87/96/87 88/98/88 
f 9/5/9 26/97/26 88/98/88 10/6/10 
f 138/99/138 47/23/47 48/26/48 119/100/119 
f 141/101/141 138/99/138 119/100/119 116/102/116 
f 11/7/11 141/101/141 116/102/116 12/8/12 
f 164/103/164 49/27/49 50/30/50 133/104/133 
f 167/105/167 164/103/164 133/104/133 130/106/130 
f 15/11/15 167/105/167 130/106/130 16/12/16 
f 151/99/151 51/23/51 52/26/52 159/100/159 
f 154/101/154 151/99/151 159/100/159 156/102/156 
f 19/7/19 154/101/154 156/102/156 20/8/20 
f 124/103/124 53/27/53 54/30/54 146/104/146 
f 127/105/127 124/103/124 146/104/146 143/106/143 
f 23/11/23 127/105/127 143/106/143 24/12/24 
f 142/107/142 55/31/55 56/34/56 84/108/84 
f 36/109/36 142/107/142 84/108/84 80/110/80 
f 16/12/16 36/109/36 80/110/80 13/9/13 
f 64/111/64 57/35/57 34/38/34 128/112/128 
f 66/113/66 64/111/64 128/112/128 129/114/129 
f 22/10/22 66/113/66 129/114/129 23/11/23 
f 168/115/168 58/39/58 59/42/59 111/116/111 
f 40/117/40 168/115/168 111/116/111 107/118/107 
f 20/8/20 40/117/40 107/118/107 17/5/17 
f 155/107/155 60/31/60 61/34/61 92/108/92 
f 38/109/38 155/107/155 92/108/92 89/110/89 
f 24/12/24 38/109/38 89/110/89 21/9/21 
# 150 polygons - 32 triangles

