# 3ds Max Wavefront OBJ Exporter v0.97b - (c)2007 guruware
# File Created: 26.03.2015 17:28:54

mtllib key_001.mtl

#
# object Cylinder001
#

v  40.3085 0.0000 -2.0485
v  36.2436 0.0000 -17.2189
v  36.2436 8.0000 -17.2189
v  40.3085 8.0000 -2.0485
v  33.8288 0.0000 -21.4015
v  22.7233 0.0000 -32.5070
v  22.7233 8.0000 -32.5070
v  33.8288 8.0000 -21.4015
v  18.5407 0.0000 -34.9218
v  3.3703 0.0000 -38.9867
v  3.3703 8.0000 -38.9867
v  18.5407 8.0000 -34.9218
v  -1.4593 0.0000 -38.9867
v  -16.6297 0.0000 -34.9218
v  -16.6297 8.0000 -34.9218
v  -1.4593 8.0000 -38.9867
v  -20.8123 0.0000 -32.5070
v  -31.9177 0.0000 -21.4015
v  -31.9177 8.0000 -21.4015
v  -20.8123 8.0000 -32.5070
v  -34.3326 0.0000 -17.2189
v  -37.1033 0.0000 -6.8782
v  -37.1033 8.0000 -6.8782
v  -34.3326 8.0000 -17.2189
v  -37.1034 0.0000 7.6107
v  -34.3326 0.0000 17.9515
v  -34.3326 8.0000 17.9515
v  -37.1034 8.0000 7.6107
v  -31.9178 0.0000 22.1340
v  -20.8123 0.0000 33.2395
v  -20.8123 8.0000 33.2395
v  -31.9178 8.0000 22.1340
v  -16.6297 0.0000 35.6543
v  -1.4593 0.0000 39.7192
v  -1.4593 8.0000 39.7192
v  -16.6297 8.0000 35.6543
v  3.3703 0.0000 39.7192
v  18.5407 0.0000 35.6543
v  18.5407 8.0000 35.6543
v  3.3703 8.0000 39.7192
v  22.7233 0.0000 33.2395
v  33.8287 0.0000 22.1341
v  33.8287 8.0000 22.1341
v  22.7233 8.0000 33.2395
v  36.2436 0.0000 17.9515
v  40.3085 0.0000 2.7811
v  40.3085 8.0000 2.7811
v  36.2436 8.0000 17.9515
v  -167.7504 0.0000 -4.4634
v  -167.7504 0.0000 5.1959
v  -167.7504 8.0000 5.1959
v  -167.7504 8.0000 -4.4634
v  -40.2504 8.0000 -4.4634
v  -40.2504 0.0000 -4.4634
v  -57.7504 0.0000 -4.4634
v  -57.7504 8.0000 -4.4634
v  -40.2504 0.0000 5.1959
v  -40.2504 8.0000 5.1959
v  -57.7504 8.0000 5.1959
v  -57.7504 0.0000 5.1959
v  -57.7504 8.0000 -19.4634
v  -57.7504 0.0000 -19.4634
v  -67.7504 0.0000 -19.4634
v  -67.7504 8.0000 -19.4634
v  -57.7504 0.0000 20.1959
v  -57.7504 8.0000 20.1959
v  -67.7504 8.0000 20.1959
v  -67.7504 0.0000 20.1959
v  -67.7504 8.0000 -4.4634
v  -67.7504 0.0000 -4.4634
v  -149.5004 9.0000 30.1959
v  -149.5004 -1.0000 30.1959
v  -140.9404 -1.0000 30.1959
v  -140.9404 9.0000 30.1959
v  -37.7504 8.0000 2.6959
v  -37.7504 8.0000 -1.9634
v  -67.7504 8.0000 5.1959
v  -157.3504 8.0000 5.1959
v  -148.5504 8.0000 15.1959
v  -157.3504 8.0000 15.1959
v  -139.7504 8.0000 15.1959
v  -130.9504 8.0000 5.1959
v  -130.9504 8.0000 15.1959
v  -67.7504 0.0000 5.1959
v  -130.9504 0.0000 5.1959
v  -130.9504 0.0000 15.1959
v  -139.7504 0.0000 15.1959
v  -148.5504 0.0000 15.1959
v  -157.3504 0.0000 15.1959
v  -157.3504 0.0000 5.1959
v  -37.7504 0.0000 -1.9634
v  -37.7504 0.0000 2.6959
v  -156.6499 9.0000 25.1959
v  -156.6499 -1.0000 25.1959
v  -149.5004 -1.0000 25.1959
v  -149.5004 9.0000 25.1959
v  -126.8845 -1.0000 30.1959
v  -126.8845 9.0000 30.1959
v  -134.0341 9.0000 30.1959
v  -134.0341 -1.0000 30.1959
v  -126.8845 -1.0000 15.1959
v  -138.8004 -1.0000 15.1959
v  -126.8845 9.0000 15.1959
v  -138.8004 9.0000 15.1959
v  -149.5004 9.0000 15.1959
v  -161.4163 9.0000 15.1959
v  -161.4163 -1.0000 15.1959
v  -149.5004 -1.0000 15.1959
v  -161.4163 9.0000 30.1959
v  -161.4163 -1.0000 30.1959
v  -156.6499 -1.0000 30.1959
v  -156.6499 9.0000 30.1959
v  -140.9404 9.0000 25.1959
v  -140.9404 -1.0000 25.1959
v  -134.0341 -1.0000 25.1959
v  -134.0341 9.0000 25.1959
v  29.9557 0.0000 -2.0485
v  27.2778 0.0000 -12.0425
v  27.2778 0.0000 12.7751
v  29.9557 0.0000 2.7811
v  17.5469 0.0000 24.2738
v  24.8630 0.0000 16.9577
v  3.3703 0.0000 29.3665
v  13.3643 0.0000 26.6886
v  -11.4533 0.0000 26.6886
v  -1.4593 0.0000 29.3665
v  -22.9520 0.0000 16.9577
v  -15.6359 0.0000 24.2738
v  -27.1034 0.0000 6.2942
v  -25.3668 0.0000 12.7751
v  -27.7504 0.0000 -0.6468
v  -27.7504 0.0000 1.3794
v  -25.3668 0.0000 -12.0425
v  -27.1033 0.0000 -5.5617
v  -15.6359 0.0000 -23.5412
v  -22.9520 0.0000 -16.2251
v  -1.4593 0.0000 -28.6339
v  -11.4533 0.0000 -25.9560
v  13.3643 0.0000 -25.9560
v  3.3703 0.0000 -28.6339
v  24.8630 0.0000 -16.2251
v  17.5469 0.0000 -23.5412
v  27.2778 8.0000 -12.0425
v  29.9557 8.0000 -2.0485
v  17.5469 8.0000 -23.5412
v  24.8630 8.0000 -16.2251
v  3.3703 8.0000 -28.6339
v  13.3643 8.0000 -25.9560
v  -11.4533 8.0000 -25.9560
v  -1.4593 8.0000 -28.6339
v  -22.9520 8.0000 -16.2251
v  -15.6359 8.0000 -23.5412
v  -27.1033 8.0000 -5.5617
v  -25.3668 8.0000 -12.0425
v  -27.7504 8.0000 1.3794
v  -27.7504 8.0000 -0.6468
v  -25.3668 8.0000 12.7751
v  -27.1034 8.0000 6.2942
v  -15.6359 8.0000 24.2738
v  -22.9520 8.0000 16.9577
v  -1.4593 8.0000 29.3665
v  -11.4533 8.0000 26.6886
v  13.3643 8.0000 26.6886
v  3.3703 8.0000 29.3665
v  24.8630 8.0000 16.9577
v  17.5469 8.0000 24.2738
v  29.9557 8.0000 2.7811
v  27.2778 8.0000 12.7751
# 168 vertices

vn 0.9914 0.0000 -0.1305
vn 0.9239 0.0000 -0.3827
vn 0.7934 0.0000 -0.6088
vn 0.6088 0.0000 -0.7934
vn 0.3827 0.0000 -0.9239
vn 0.1305 0.0000 -0.9914
vn -0.1305 0.0000 -0.9914
vn -0.3827 0.0000 -0.9239
vn -0.6088 0.0000 -0.7934
vn -0.7934 0.0000 -0.6088
vn -0.9239 0.0000 -0.3827
vn -0.9659 0.0000 -0.2588
vn -0.9659 0.0000 0.2588
vn -0.9239 0.0000 0.3827
vn -0.7934 0.0000 0.6088
vn -0.6088 0.0000 0.7934
vn -0.3827 0.0000 0.9239
vn -0.1305 0.0000 0.9914
vn 0.1305 0.0000 0.9914
vn 0.3827 0.0000 0.9239
vn 0.6088 0.0000 0.7934
vn 0.7934 0.0000 0.6088
vn 0.9239 0.0000 0.3827
vn 0.9914 0.0000 0.1305
vn -1.0000 0.0000 -0.0000
vn 0.0000 0.0000 -1.0000
vn -0.0000 0.0000 1.0000
vn 0.0000 0.0000 1.0000
vn 1.0000 0.0000 0.0000
vn 0.0000 1.0000 -0.0000
vn 0.0000 -1.0000 -0.0000
vn 1.0000 0.0000 -0.0000
vn -0.9914 -0.0000 0.1305
vn -0.9239 -0.0000 0.3827
vn -0.6088 -0.0000 0.7934
vn -0.7934 -0.0000 0.6088
vn -0.3827 -0.0000 0.9239
vn -0.1305 -0.0000 0.9914
vn 0.1305 -0.0000 0.9914
vn 0.9808 0.0000 0.1951
vn 0.9979 0.0000 0.0654
vn 0.9979 0.0000 -0.0654
vn 0.9808 0.0000 -0.1951
vn -0.9239 -0.0000 -0.3827
vn -0.9914 -0.0000 -0.1305
# 45 vertex normals

vt 0.7601 0.0000 1.0000
vt 0.8233 0.0000 1.0000
vt 0.8233 1.0000 1.0000
vt 0.7601 1.0000 1.0000
vt 0.8434 0.0000 1.0000
vt 0.9066 0.0000 1.0000
vt 0.9066 1.0000 1.0000
vt 0.8434 1.0000 1.0000
vt 0.9267 0.0000 1.0000
vt 0.9899 0.0000 1.0000
vt 0.9899 1.0000 1.0000
vt 0.9267 1.0000 1.0000
vt 0.0101 0.0000 1.0000
vt 0.0733 0.0000 1.0000
vt 0.0733 1.0000 1.0000
vt 0.0101 1.0000 1.0000
vt 0.0934 0.0000 1.0000
vt 0.1566 0.0000 1.0000
vt 0.1566 1.0000 1.0000
vt 0.0934 1.0000 1.0000
vt 0.1767 0.0000 1.0000
vt 0.2198 0.0000 1.0000
vt 0.2198 1.0000 1.0000
vt 0.1767 1.0000 1.0000
vt 0.2802 0.0000 1.0000
vt 0.3233 0.0000 1.0000
vt 0.3233 1.0000 1.0000
vt 0.2802 1.0000 1.0000
vt 0.3434 0.0000 1.0000
vt 0.4066 0.0000 1.0000
vt 0.4066 1.0000 1.0000
vt 0.3434 1.0000 1.0000
vt 0.4267 0.0000 1.0000
vt 0.4899 0.0000 1.0000
vt 0.4899 1.0000 1.0000
vt 0.4267 1.0000 1.0000
vt 0.5101 0.0000 1.0000
vt 0.5733 0.0000 1.0000
vt 0.5733 1.0000 1.0000
vt 0.5101 1.0000 1.0000
vt 0.5934 0.0000 1.0000
vt 0.6566 0.0000 1.0000
vt 0.6566 1.0000 1.0000
vt 0.5934 1.0000 1.0000
vt 0.6767 0.0000 1.0000
vt 0.7399 0.0000 1.0000
vt 0.7399 1.0000 1.0000
vt 0.6767 1.0000 1.0000
vt 0.2299 0.0000 1.0000
vt 0.2701 0.0000 1.0000
vt 0.2701 1.0000 1.0000
vt 0.2299 1.0000 1.0000
vt 0.2597 1.0000 1.0000
vt 0.2403 1.0000 1.0000
vt 0.2403 0.0000 1.0000
vt 0.2597 0.0000 1.0000
vt 0.2802 0.9411 -0.2500
vt 0.4698 0.9919 -0.2500
vt 0.4593 0.9891 -0.2500
vt 0.2907 0.9439 -0.2500
vt 0.5302 0.9919 -0.2500
vt 0.7198 0.9411 -0.2500
vt 0.7093 0.9439 -0.2500
vt 0.5407 0.9891 -0.2500
vt 0.7721 0.9109 -0.2500
vt 0.9109 0.7721 -0.2500
vt 0.9032 0.7798 -0.2500
vt 0.7798 0.9032 -0.2500
vt 0.9411 0.7198 -0.2500
vt 0.9919 0.5302 -0.2500
vt 0.9891 0.5407 -0.2500
vt 0.9439 0.7093 -0.2500
vt 0.9919 0.4698 -0.2500
vt 0.9411 0.2802 -0.2500
vt 0.9439 0.2907 -0.2500
vt 0.9891 0.4593 -0.2500
vt 0.9109 0.2279 -0.2500
vt 0.7721 0.0891 -0.2500
vt 0.7798 0.0968 -0.2500
vt 0.9032 0.2202 -0.2500
vt 0.7198 0.0589 -0.2500
vt 0.5906 0.0243 -0.2500
vt 0.6009 0.0270 -0.2500
vt 0.7095 0.0561 -0.2500
vt 0.5291 0.0162 -0.2500
vt 0.4709 0.0162 -0.2500
vt 0.4826 0.0162 -0.2500
vt 0.5174 0.0162 -0.2500
vt 0.4094 0.0243 -0.2500
vt 0.2802 0.0589 -0.2500
vt 0.2905 0.0561 -0.2500
vt 0.3991 0.0270 -0.2500
vt 0.2279 0.0891 -0.2500
vt 0.0891 0.2279 -0.2500
vt 0.0968 0.2202 -0.2500
vt 0.2202 0.0968 -0.2500
vt 0.0589 0.2802 -0.2500
vt 0.0081 0.4698 -0.2500
vt 0.0109 0.4593 -0.2500
vt 0.0561 0.2907 -0.2500
vt 0.0081 0.5302 -0.2500
vt 0.0589 0.7198 -0.2500
vt 0.0561 0.7093 -0.2500
vt 0.0109 0.5407 -0.2500
vt 0.0891 0.7721 -0.2500
vt 0.2279 0.9109 -0.2500
vt 0.2202 0.9032 -0.2500
vt 0.0968 0.7798 -0.2500
vt 0.4698 0.9919 0.2500
vt 0.2802 0.9411 0.2500
vt 0.2907 0.9439 0.2500
vt 0.4593 0.9891 0.2500
vt 0.2279 0.9109 0.2500
vt 0.0891 0.7721 0.2500
vt 0.0968 0.7798 0.2500
vt 0.2202 0.9032 0.2500
vt 0.0589 0.7198 0.2500
vt 0.0081 0.5302 0.2500
vt 0.0109 0.5407 0.2500
vt 0.0561 0.7093 0.2500
vt 0.0081 0.4698 0.2500
vt 0.0589 0.2802 0.2500
vt 0.0561 0.2907 0.2500
vt 0.0109 0.4593 0.2500
vt 0.0891 0.2279 0.2500
vt 0.2279 0.0891 0.2500
vt 0.2202 0.0968 0.2500
vt 0.0968 0.2202 0.2500
vt 0.2802 0.0589 0.2500
vt 0.4094 0.0243 0.2500
vt 0.3991 0.0270 0.2500
vt 0.2905 0.0561 0.2500
vt 0.4709 0.0162 0.2500
vt 0.5291 0.0162 0.2500
vt 0.5174 0.0162 0.2500
vt 0.4826 0.0162 0.2500
vt 0.5906 0.0243 0.2500
vt 0.7198 0.0589 0.2500
vt 0.7095 0.0561 0.2500
vt 0.6009 0.0270 0.2500
vt 0.7721 0.0891 0.2500
vt 0.9109 0.2279 0.2500
vt 0.9032 0.2202 0.2500
vt 0.7798 0.0968 0.2500
vt 0.9411 0.2802 0.2500
vt 0.9919 0.4698 0.2500
vt 0.9891 0.4593 0.2500
vt 0.9439 0.2907 0.2500
vt 0.9919 0.5302 0.2500
vt 0.9411 0.7198 0.2500
vt 0.9439 0.7093 0.2500
vt 0.9891 0.5407 0.2500
vt 0.9109 0.7721 0.2500
vt 0.7721 0.9109 0.2500
vt 0.7798 0.9032 0.2500
vt 0.9032 0.7798 0.2500
vt 0.7198 0.9411 0.2500
vt 0.5302 0.9919 0.2500
vt 0.5407 0.9891 0.2500
vt 0.7093 0.9439 0.2500
vt -0.5936 0.0000 1.0000
vt -0.5936 1.0000 1.0000
# 162 texture coords

g Cylinder001
usemtl wire_154154229
s 1
f 1/1/1 2/2/2 3/3/2 4/4/1 
f 5/5/3 6/6/4 7/7/4 8/8/3 
f 9/9/5 10/10/6 11/11/6 12/12/5 
f 13/13/7 14/14/8 15/15/8 16/16/7 
f 17/17/9 18/18/10 19/19/10 20/20/9 
f 21/21/11 22/22/12 23/23/12 24/24/11 
f 25/25/13 26/26/14 27/27/14 28/28/13 
f 29/29/15 30/30/16 31/31/16 32/32/15 
f 33/33/17 34/34/18 35/35/18 36/36/17 
f 37/37/19 38/38/20 39/39/20 40/40/19 
f 41/41/21 42/42/22 43/43/22 44/44/21 
f 45/45/23 46/46/24 47/47/24 48/48/23 
f 49/49/25 50/50/25 51/51/25 52/52/25 
f 53/52/26 54/49/26 55/49/26 56/52/26 
f 57/50/27 58/51/27 59/51/27 60/50/27 
f 61/52/26 62/49/26 63/49/26 64/52/26 
f 65/50/27 66/51/27 67/51/27 68/50/27 
s 2
f 69/52/26 70/49/26 49/49/26 52/52/26 
s 1
f 71/51/28 72/50/28 73/50/28 74/51/28 
s 2
f 56/52/29 55/49/29 62/49/29 61/52/29 
s 4
f 70/49/25 69/52/25 64/52/25 63/49/25 
s 2
f 60/50/29 59/51/29 66/51/29 65/50/29 
s 8
f 59/51/30 58/51/30 75/53/30 56/52/30 
f 75/53/30 76/54/30 53/52/30 56/52/30 
f 61/52/30 64/52/30 69/52/30 56/52/30 
f 59/51/30 56/52/30 69/52/30 77/51/30 
f 52/52/30 51/51/30 78/51/31 79/51/30 
f 78/51/31 80/51/30 79/51/30 
f 52/52/30 79/51/30 81/51/30 82/51/30 
f 81/51/30 83/51/30 82/51/30 
f 52/52/30 82/51/30 77/51/30 69/52/30 
f 59/51/30 77/51/30 67/51/30 66/51/30 
s 2
f 77/51/25 84/50/25 68/50/25 67/51/25 
s 8
f 85/50/31 86/50/31 87/50/31 88/50/31 
f 88/50/31 89/50/31 90/50/31 85/50/31 
f 90/50/31 50/50/31 49/49/31 85/50/31 
f 84/50/31 85/50/31 49/49/31 70/49/31 
f 63/49/31 62/49/31 55/49/31 70/49/31 
f 84/50/31 70/49/31 55/49/31 60/50/31 
f 55/49/31 54/49/31 91/55/31 60/50/31 
f 91/55/31 92/56/31 57/50/31 60/50/31 
f 84/50/31 60/50/31 65/50/31 68/50/31 
s 2
f 51/51/28 50/50/28 90/50/28 78/51/28 
s 1
f 93/51/28 94/50/28 95/50/28 96/51/28 
f 84/50/28 77/51/28 82/51/28 85/50/28 
f 97/50/28 98/51/28 99/51/28 100/50/28 
s 2
f 85/50/32 82/51/32 83/51/32 86/50/32 
s 1
f 78/51/25 90/50/25 89/50/25 80/51/25 
s 4
f 87/50/26 86/50/26 101/50/26 102/50/26 
f 86/50/26 83/51/26 103/51/26 101/50/26 
f 83/51/26 81/51/26 104/51/26 103/51/26 
f 81/51/26 79/51/26 105/51/26 104/51/26 
f 79/51/26 80/51/26 106/51/26 105/51/26 
f 80/51/26 89/50/26 107/50/26 106/51/26 
f 89/50/26 88/50/26 108/50/26 107/50/26 
f 88/50/26 87/50/26 102/50/26 108/50/26 
s 1
f 109/51/28 110/50/28 111/50/28 112/51/28 
f 113/51/28 114/50/28 115/50/28 116/51/28 
s 2
f 96/51/25 95/50/25 72/50/25 71/51/25 
s 8
f 111/50/31 110/50/31 107/50/31 94/50/31 
f 95/50/31 94/50/31 107/50/31 108/50/31 
f 102/50/31 101/50/31 97/50/31 115/50/31 
f 97/50/31 100/50/31 115/50/31 
f 102/50/31 115/50/31 114/50/31 108/50/31 
f 108/50/31 114/50/31 73/50/31 95/50/31 
f 72/50/31 95/50/31 73/50/31 
s 2
f 114/50/32 113/51/32 74/51/32 73/50/32 
f 101/50/32 103/51/32 98/51/32 97/50/32 
f 116/51/25 115/50/25 100/50/25 99/51/25 
f 106/51/25 107/50/25 110/50/25 109/51/25 
f 94/50/32 93/51/32 112/51/32 111/50/32 
s 8
f 71/51/30 74/51/30 113/51/30 104/51/30 
f 99/51/30 98/51/30 103/51/30 116/51/30 
f 113/51/30 116/51/30 103/51/30 104/51/30 
f 96/51/30 71/51/30 104/51/30 105/51/30 
f 93/51/30 96/51/30 105/51/30 109/51/30 
f 105/51/30 106/51/30 109/51/30 
f 112/51/30 93/51/30 109/51/30 
f 2/57/31 1/58/31 117/59/31 118/60/31 
f 46/61/31 45/62/31 119/63/31 120/64/31 
f 42/65/31 41/66/31 121/67/31 122/68/31 
f 38/69/31 37/70/31 123/71/31 124/72/31 
f 34/73/31 33/74/31 125/75/31 126/76/31 
f 30/77/31 29/78/31 127/79/31 128/80/31 
f 26/81/31 25/82/31 129/83/31 130/84/31 
f 92/85/31 91/86/31 131/87/31 132/88/31 
f 22/89/31 21/90/31 133/91/31 134/92/31 
f 18/93/31 17/94/31 135/95/31 136/96/31 
f 14/97/31 13/98/31 137/99/31 138/100/31 
f 10/101/31 9/102/31 139/103/31 140/104/31 
f 6/105/31 5/106/31 141/107/31 142/108/31 
f 4/109/30 3/110/30 143/111/30 144/112/30 
f 8/113/30 7/114/30 145/115/30 146/116/30 
f 12/117/30 11/118/30 147/119/30 148/120/30 
f 16/121/30 15/122/30 149/123/30 150/124/30 
f 20/125/30 19/126/30 151/127/30 152/128/30 
f 24/129/30 23/130/30 153/131/30 154/132/30 
f 76/133/30 75/134/30 155/135/30 156/136/30 
f 28/137/30 27/138/30 157/139/30 158/140/30 
f 32/141/30 31/142/30 159/143/30 160/144/30 
f 36/145/30 35/146/30 161/147/30 162/148/30 
f 40/149/30 39/150/30 163/151/30 164/152/30 
f 44/153/30 43/154/30 165/155/30 166/156/30 
f 48/157/30 47/158/30 167/159/30 168/160/30 
s 1
f 144/112/33 143/111/34 118/111/34 117/112/33 
f 146/116/15 145/115/35 142/115/16 141/116/36 
f 148/120/37 147/119/18 140/119/38 139/120/37 
f 150/124/19 149/123/20 138/123/20 137/124/39 
f 152/128/21 151/127/22 136/127/22 135/128/21 
f 154/132/23 153/131/40 134/131/40 133/132/23 
f 156/136/41 155/135/42 132/135/42 131/136/41 
f 158/140/43 157/139/2 130/139/2 129/140/43 
f 160/144/3 159/143/4 128/143/4 127/144/3 
f 162/148/5 161/147/6 126/147/6 125/148/5 
f 164/152/7 163/151/8 124/151/8 123/152/7 
f 166/156/9 165/155/10 122/155/10 121/156/9 
f 168/160/44 167/159/45 120/159/45 119/160/11 
s 8
f 22/22/31 91/55/31 54/49/31 
f 28/28/30 75/53/30 58/51/30 
f 92/56/31 25/25/31 57/50/31 
f 53/52/30 76/54/30 23/23/30 
s 1
f 2/2/2 5/5/3 8/8/3 3/3/2 
f 4/4/1 47/47/24 46/46/24 1/1/1 
f 6/6/4 9/9/5 12/12/5 7/7/4 
f 10/161/6 13/13/7 16/16/7 11/162/6 
f 14/14/8 17/17/9 20/20/9 15/15/8 
f 18/18/10 21/21/11 24/24/11 19/19/10 
s 2
f 53/52/9 23/23/9 22/22/9 54/49/9 
s 1
f 26/26/14 29/29/15 32/32/15 27/27/14 
f 30/30/16 33/33/17 36/36/17 31/31/16 
f 34/34/18 37/37/19 40/40/19 35/35/18 
f 38/38/20 41/41/21 44/44/21 39/39/20 
f 42/42/22 45/45/23 48/48/23 43/43/22 
s 2
f 57/50/16 25/25/16 28/28/16 58/51/16 
s 8
f 5/106/31 2/57/31 118/60/31 141/107/31 
f 1/58/31 46/61/31 120/64/31 117/59/31 
f 45/62/31 42/65/31 122/68/31 119/63/31 
f 41/66/31 38/69/31 124/72/31 121/67/31 
f 37/70/31 34/73/31 126/76/31 123/71/31 
f 33/74/31 30/77/31 128/80/31 125/75/31 
f 29/78/31 26/81/31 130/84/31 127/79/31 
f 25/82/31 92/85/31 132/88/31 129/83/31 
f 91/86/31 22/89/31 134/92/31 131/87/31 
f 21/90/31 18/93/31 136/96/31 133/91/31 
f 17/94/31 14/97/31 138/100/31 135/95/31 
f 13/98/31 10/101/31 140/104/31 137/99/31 
f 9/102/31 6/105/31 142/108/31 139/103/31 
f 47/158/30 4/109/30 144/112/30 167/159/30 
f 3/110/30 8/113/30 146/116/30 143/111/30 
f 7/114/30 12/117/30 148/120/30 145/115/30 
f 11/118/30 16/121/30 150/124/30 147/119/30 
f 15/122/30 20/125/30 152/128/30 149/123/30 
f 19/126/30 24/129/30 154/132/30 151/127/30 
f 23/130/30 76/133/30 156/136/30 153/131/30 
f 75/134/30 28/137/30 158/140/30 155/135/30 
f 27/138/30 32/141/30 160/144/30 157/139/30 
f 31/142/30 36/145/30 162/148/30 159/143/30 
f 35/146/30 40/149/30 164/152/30 161/147/30 
f 39/150/30 44/153/30 166/156/30 163/151/30 
f 43/154/30 48/157/30 168/160/30 165/155/30 
s 1
f 167/159/45 144/112/33 117/112/33 120/159/45 
f 143/111/34 146/116/15 141/116/36 118/111/34 
f 145/115/35 148/120/37 139/120/37 142/115/16 
f 147/119/18 150/124/19 137/124/39 140/119/38 
f 149/123/20 152/128/21 135/128/21 138/123/20 
f 151/127/22 154/132/23 133/132/23 136/127/22 
f 153/131/40 156/136/41 131/136/41 134/131/40 
f 155/135/42 158/140/43 129/140/43 132/135/42 
f 157/139/2 160/144/3 127/144/3 130/139/2 
f 159/143/4 162/148/5 125/148/5 128/143/4 
f 161/147/6 164/152/7 123/152/7 126/147/6 
f 163/151/8 166/156/9 121/156/9 124/151/8 
f 165/155/10 168/160/44 119/160/11 122/155/10 
# 163 polygons - 10 triangles

