# This file uses centimeters as units for non-parametric coordinates.

mtllib testMale_Collider.mtl
g default
v 0.702910 2.491258 -0.597905
v -0.004196 2.491258 -0.659642
v -0.711303 2.491258 -0.597905
v -1.430938 1.699474 -0.117213
v -0.711303 2.491258 0.589893
v -0.004196 2.491258 0.721839
v 0.702910 2.491258 0.589893
v 1.422545 1.699474 -0.117213
v 0.368141 4.887082 -0.597905
v -0.004196 4.887082 -0.659642
v -0.376534 4.887082 -0.597905
v -0.714657 4.887082 -0.117214
v -0.376534 4.887082 0.589893
v -0.004196 4.887082 0.721839
v 0.368141 4.887082 0.589893
v 0.706264 4.887082 -0.117214
v -0.004196 2.491258 -0.117213
v -0.004196 4.887082 -0.117214
v -0.707680 0.130643 -0.167796
v -0.466698 0.103202 0.539311
v -0.128161 0.103202 -0.167796
v 0.381044 0.059771 0.458903
v 0.689631 0.167993 -0.230110
v 0.173281 0.059771 -0.265832
v -0.711303 1.671533 0.589893
v -0.004196 1.671533 0.882786
v -0.004196 1.671533 -0.117213
v 0.702910 1.671533 0.589893
v 0.712622 3.760914 -0.597905
v 1.644491 3.765073 -0.117213
v 0.712622 3.760914 0.589893
v -0.004196 3.760893 0.721839
v -0.721015 3.760914 0.589893
v -1.652883 3.765073 -0.117213
v -0.721015 3.760914 -0.597905
v -0.004196 3.760893 -0.659642
v 0.670124 4.479344 -0.597905
v 1.375470 4.490677 -0.117213
v 0.670124 4.479344 0.589893
v -0.004196 4.479339 0.721839
v -0.678516 4.479344 0.589893
v -1.383863 4.490677 -0.117213
v -0.678516 4.479344 -0.597905
v -0.004196 4.479339 -0.659642
vt 0.610485 0.045765
vt 0.500000 0.000000
vt 0.389515 0.045765
vt 0.343750 0.156250
vt 0.389515 0.266735
vt 0.500000 0.312500
vt 0.610485 0.266735
vt 0.656250 0.156250
vt 0.375000 0.312500
vt 0.406250 0.312500
vt 0.437500 0.312500
vt 0.468750 0.312500
vt 0.500000 0.312500
vt 0.531250 0.312500
vt 0.562500 0.312500
vt 0.593750 0.312500
vt 0.625000 0.312500
vt 0.375000 0.688440
vt 0.406250 0.688440
vt 0.437500 0.688440
vt 0.468750 0.688440
vt 0.500000 0.688440
vt 0.531250 0.688440
vt 0.562500 0.688440
vt 0.593750 0.688440
vt 0.625000 0.688440
vt 0.610485 0.733265
vt 0.500000 0.687500
vt 0.389515 0.733265
vt 0.343750 0.843750
vt 0.389515 0.954235
vt 0.500000 1.000000
vt 0.610485 0.954235
vt 0.656250 0.843750
vt 0.500000 0.150000
vt 0.500000 0.837500
vt 0.389515 0.266735
vt 0.343750 0.156250
vt 0.500000 0.150000
vt 0.656250 0.156250
vt 0.610485 0.266735
vt 0.500000 0.312500
vt 0.389515 0.266735
vt 0.500000 0.150000
vt 0.610485 0.266735
vt 0.625000 0.551157
vt 0.375000 0.551157
vt 0.593750 0.590652
vt 0.562500 0.551157
vt 0.531250 0.551153
vt 0.500000 0.551157
vt 0.468750 0.590652
vt 0.437500 0.551157
vt 0.406250 0.551153
vt 0.625000 0.638736
vt 0.375000 0.638736
vt 0.593750 0.653891
vt 0.562500 0.638736
vt 0.531250 0.638734
vt 0.500000 0.638736
vt 0.468750 0.653891
vt 0.437500 0.638736
vt 0.406250 0.638734
vn 0.086389 -0.000330 -0.996261
vn 0.086389 -0.000330 -0.996261
vn 0.087109 0.000718 -0.996199
vn 0.087093 0.000696 -0.996200
vn -0.086389 -0.000330 -0.996261
vn -0.086389 -0.000330 -0.996261
vn -0.087093 0.000696 -0.996200
vn -0.087109 0.000718 -0.996199
vn -0.490612 -0.034077 -0.870712
vn -0.490612 -0.034077 -0.870712
vn -0.494798 0.003806 -0.869000
vn -0.495314 0.008983 -0.868667
vn -0.720675 -0.148374 0.677210
vn -0.677404 -0.091744 0.729868
vn -0.642592 0.011560 0.766122
vn -0.642149 0.005626 0.766559
vn -0.224141 0.036823 0.973861
vn -0.224822 0.037437 0.973680
vn -0.183701 0.001515 0.982981
vn -0.183670 0.001468 0.982987
vn 0.224822 0.037437 0.973680
vn 0.224141 0.036823 0.973861
vn 0.183670 0.001468 0.982987
vn 0.183701 0.001515 0.982981
vn 0.668128 -0.101984 0.737023
vn 0.700084 -0.170297 0.693456
vn 0.642149 0.005626 0.766559
vn 0.642592 0.011560 0.766122
vn 0.490612 -0.034077 -0.870711
vn 0.490612 -0.034077 -0.870711
vn 0.495314 0.008983 -0.868667
vn 0.494798 0.003806 -0.869000
vn 0.000000 -1.000000 0.000000
vn -0.355975 -0.774000 -0.523647
vn 0.000000 -0.902847 -0.429962
vn 0.355975 -0.774000 -0.523647
vn 0.394950 -0.711673 -0.580979
vn -0.047288 -0.998625 -0.022640
vn -0.047288 -0.998625 -0.022640
vn -0.047288 -0.998625 -0.022640
vn 0.000000 -1.000000 0.000000
vn 0.000000 -1.000000 0.000000
vn 0.000000 -1.000000 0.000000
vn 0.000000 -1.000000 0.000000
vn 0.208729 -0.976141 -0.059838
vn 0.208729 -0.976141 -0.059838
vn 0.208729 -0.976141 -0.059838
vn -0.394950 -0.711673 -0.580979
vn 0.000000 1.000000 0.000000
vn 0.000000 1.000000 0.000000
vn 0.000000 1.000000 0.000000
vn 0.000000 1.000000 0.000000
vn 0.000000 1.000000 0.000000
vn 0.000000 1.000000 0.000000
vn 0.000000 1.000000 0.000000
vn 0.000000 1.000000 0.000000
vn 0.000000 1.000000 0.000000
vn -0.756445 -0.200942 0.622425
vn -0.756445 -0.200942 0.622425
vn -0.009206 0.024164 -0.999666
vn -0.009206 0.024164 -0.999666
vn -0.009206 0.024164 -0.999666
vn -0.009206 0.024164 -0.999666
vn 0.804056 0.007717 0.594504
vn 0.804056 0.007717 0.594504
vn 0.804056 0.007717 0.594504
vn 0.804056 0.007717 0.594504
vn 0.725114 -0.232878 0.648057
vn 0.725114 -0.232878 0.648057
vn -0.842660 -0.005938 0.538414
vn -0.842660 -0.005938 0.538414
vn -0.842660 -0.005938 0.538414
vn -0.842660 -0.005938 0.538414
vn 0.039541 0.060276 -0.997398
vn 0.039541 0.060276 -0.997398
vn 0.039541 0.060276 -0.997398
vn 0.039541 0.060276 -0.997398
vn -0.286442 0.093608 0.953514
vn -0.286442 0.093608 0.953514
vn -0.707107 0.000000 -0.707107
vn -0.707107 0.000000 -0.707107
vn -0.707107 0.000000 -0.707107
vn -0.707107 0.000000 -0.707107
vn 0.286442 0.093608 0.953514
vn 0.286442 0.093608 0.953514
vn 0.707107 0.000000 -0.707107
vn 0.707107 0.000000 -0.707107
vn 0.707107 0.000000 -0.707107
vn 0.707107 0.000000 -0.707107
vn 0.534335 0.342756 -0.772660
vn 0.520382 0.211427 -0.827346
vn 0.654885 0.285339 0.699791
vn 0.649134 0.409821 0.640837
vn 0.198055 0.022602 0.979930
vn 0.203895 0.031184 0.978496
vn -0.203895 0.031184 0.978496
vn -0.198055 0.022602 0.979930
vn -0.649134 0.409821 0.640837
vn -0.654885 0.285338 0.699791
vn -0.520382 0.211427 -0.827346
vn -0.534335 0.342756 -0.772660
vn -0.094088 0.010667 -0.995507
vn -0.097027 0.014840 -0.995171
vn 0.097027 0.014840 -0.995171
vn 0.094088 0.010667 -0.995507
vn 0.522154 0.630621 -0.574171
vn 0.522154 0.630621 -0.574171
vn 0.575683 0.695270 0.430336
vn 0.575683 0.695270 0.430336
vn 0.243480 0.090164 0.965706
vn 0.243480 0.090164 0.965706
vn -0.243480 0.090164 0.965706
vn -0.243480 0.090164 0.965706
vn -0.575683 0.695270 0.430336
vn -0.575683 0.695270 0.430336
vn -0.522154 0.630621 -0.574171
vn -0.522154 0.630621 -0.574171
vn -0.117047 0.043344 -0.992180
vn -0.117047 0.043344 -0.992180
vn 0.117047 0.043344 -0.992180
vn 0.117047 0.043344 -0.992180
s 1
g pCylinder1
usemtl initialShadingGroup
f 1/9/1 2/10/2 36/54/3 29/47/4
s 2
f 2/10/5 3/11/6 35/53/7 36/54/8
s 3
f 3/11/9 4/12/10 34/52/11 35/53/12
s 4
f 4/12/13 5/13/14 33/51/15 34/52/16
s 5
f 5/13/17 6/14/18 32/50/19 33/51/20
s 6
f 6/14/21 7/15/22 31/49/23 32/50/24
s 7
f 7/15/25 8/16/26 30/48/27 31/49/28
s 8
f 8/16/29 1/17/30 29/46/31 30/48/32
s 9
f 2/2/33 1/1/34 17/35/35
f 3/3/36 2/2/33 17/35/35
f 4/4/37 3/3/36 17/35/35
s off
f 20/37/38 19/38/39 21/39/40
s 10
f 26/42/41 25/43/42 27/44/43
f 28/45/44 26/42/41 27/44/43
s off
f 23/40/45 22/41/46 24/39/47
s 9
f 1/1/34 8/8/48 17/35/35
s 11
f 9/33/49 10/32/50 18/36/51
f 10/32/50 11/31/52 18/36/51
f 11/31/52 12/30/53 18/36/51
f 12/30/53 13/29/54 18/36/51
f 13/29/54 14/28/55 18/36/51
f 14/28/55 15/27/56 18/36/51
f 15/27/56 16/34/57 18/36/51
f 16/34/57 9/33/49 18/36/51
s 4
f 5/5/14 4/4/13 19/38/58 20/37/59
s off
f 4/4/60 17/35/61 21/39/62 19/38/63
f 17/35/64 5/5/65 20/37/66 21/39/67
s 7
f 8/8/26 7/7/25 22/41/68 23/40/69
s off
f 7/7/70 17/35/71 24/39/72 22/41/73
f 17/35/74 8/8/75 23/40/76 24/39/77
s 5
f 6/6/18 5/5/17 25/43/78 26/42/79
s off
f 5/5/80 17/35/81 27/44/82 25/43/83
s 6
f 7/7/22 6/6/21 26/42/84 28/45/85
s off
f 17/35/86 7/7/87 28/45/88 27/44/89
s 8
f 30/48/32 29/46/31 37/55/90 38/57/91
s 7
f 31/49/28 30/48/27 38/57/92 39/58/93
s 6
f 32/50/24 31/49/23 39/58/94 40/59/95
s 5
f 33/51/20 32/50/19 40/59/96 41/60/97
s 4
f 34/52/16 33/51/15 41/60/98 42/61/99
s 3
f 35/53/12 34/52/11 42/61/100 43/62/101
s 2
f 36/54/8 35/53/7 43/62/102 44/63/103
s 1
f 29/47/4 36/54/3 44/63/104 37/56/105
s 8
f 38/57/91 37/55/90 9/26/106 16/25/107
s 7
f 39/58/93 38/57/92 16/25/108 15/24/109
s 6
f 40/59/95 39/58/94 15/24/110 14/23/111
s 5
f 41/60/97 40/59/96 14/23/112 13/22/113
s 4
f 42/61/99 41/60/98 13/22/114 12/21/115
s 3
f 43/62/101 42/61/100 12/21/116 11/20/117
s 2
f 44/63/103 43/62/102 11/20/118 10/19/119
s 1
f 37/56/105 44/63/104 10/19/120 9/18/121
