# This file uses centimeters as units for non-parametric coordinates.

mtllib parkBench.mtl
g default
v -10.892932 0.002976 -0.698820
v -10.490307 0.002976 -0.698820
v -10.892932 1.276285 -0.698820
v -10.490307 1.276285 -0.698820
v -10.892932 1.276285 -1.916948
v -10.490307 1.276285 -1.916948
v -10.892932 0.002976 -1.916948
v -10.490307 0.002976 -1.916948
v -11.620695 1.279124 -0.354295
v -3.991986 1.279124 -0.354295
v -11.620695 1.528176 -0.354295
v -3.991986 1.528176 -0.354295
v -11.620695 1.528176 -2.261473
v -3.991986 1.528176 -2.261473
v -11.620695 1.279124 -2.261473
v -3.991986 1.279124 -2.261473
v -4.719748 0.002976 -1.916948
v -5.122373 0.002976 -1.916948
v -4.719748 1.276285 -1.916948
v -5.122373 1.276285 -1.916948
v -4.719748 1.276285 -0.698820
v -5.122373 1.276285 -0.698820
v -4.719748 0.002976 -0.698820
v -5.122373 0.002976 -0.698820
v -11.620695 2.198436 -2.460620
v -3.991986 2.198436 -2.460620
v -11.620695 2.441947 -2.460620
v -3.991986 2.441947 -2.460620
v -11.620695 2.441947 -5.186089
v -3.991986 2.441947 -5.186089
v -11.620695 2.198436 -5.186089
v -3.991986 2.198436 -5.186089
v -10.892932 0.002563 -3.482382
v -10.490307 0.002563 -3.482382
v -10.892932 2.192709 -3.482382
v -10.490307 2.192709 -3.482382
v -10.892932 2.192709 -4.164326
v -10.490307 2.192709 -4.164326
v -10.892932 0.002563 -4.164326
v -10.490307 0.002563 -4.164326
v -4.719748 0.002563 -4.164326
v -5.122373 0.002563 -4.164326
v -4.719748 2.192709 -4.164326
v -5.122373 2.192709 -4.164326
v -4.719748 2.192709 -3.482382
v -5.122373 2.192709 -3.482382
v -4.719748 0.002563 -3.482382
v -5.122373 0.002563 -3.482382
v -4.719748 0.002976 -6.947888
v -5.122373 0.002976 -6.947888
v -4.719748 1.276285 -6.947888
v -5.122373 1.276285 -6.947888
v -4.719748 1.276285 -5.729760
v -5.122373 1.276285 -5.729760
v -4.719748 0.002976 -5.729760
v -5.122373 0.002976 -5.729760
v -3.991986 1.279124 -7.292413
v -11.620695 1.279124 -7.292413
v -3.991986 1.528176 -7.292413
v -11.620695 1.528176 -7.292413
v -3.991986 1.528176 -5.385236
v -11.620695 1.528176 -5.385236
v -3.991986 1.279124 -5.385236
v -11.620695 1.279124 -5.385236
v -10.892932 0.002976 -5.729760
v -10.490307 0.002976 -5.729760
v -10.892932 1.276285 -5.729760
v -10.490307 1.276285 -5.729760
v -10.892932 1.276285 -6.947888
v -10.490307 1.276285 -6.947888
v -10.892932 0.002976 -6.947888
v -10.490307 0.002976 -6.947888
vt 0.044841 0.091436
vt 0.062334 0.091436
vt 0.062334 0.038511
vt 0.044841 0.038511
vt 0.013222 0.023543
vt 0.344669 0.023543
vt 0.344669 0.106405
vt 0.013222 0.106405
vt 0.013222 0.106405
vt 0.344669 0.106405
vt 0.344669 0.023543
vt 0.013222 0.023543
vt 0.313050 0.038511
vt 0.295557 0.038511
vt 0.295557 0.091436
vt 0.313050 0.091436
vt 0.591136 0.134079
vt 0.606895 0.134079
vt 0.606895 0.183916
vt 0.591136 0.183916
vt 0.591136 0.183916
vt 0.606895 0.183916
vt 0.606895 0.134079
vt 0.591136 0.134079
vt 0.562651 0.184027
vt 0.861240 0.184027
vt 0.861240 0.193775
vt 0.562651 0.193775
vt 0.562651 0.193775
vt 0.861240 0.193775
vt 0.861240 0.184027
vt 0.562651 0.184027
vt 0.832756 0.134079
vt 0.816997 0.134079
vt 0.816997 0.183916
vt 0.832756 0.183916
vt 0.832756 0.183916
vt 0.816997 0.183916
vt 0.816997 0.134079
vt 0.832756 0.134079
vt 0.663724 0.049928
vt 0.758588 0.049928
vt 0.758588 0.149089
vt 0.663724 0.149089
vt 0.758588 0.049928
vt 0.663724 0.049928
vt 0.663724 0.149089
vt 0.758588 0.149089
vt 0.636894 0.149310
vt 0.785418 0.149310
vt 0.785418 0.168705
vt 0.636894 0.168705
vt 0.785418 0.149310
vt 0.636894 0.149310
vt 0.636894 0.168705
vt 0.785418 0.168705
vt 0.758588 0.049928
vt 0.663724 0.049928
vt 0.663724 0.149089
vt 0.758588 0.149089
vt 0.663724 0.049928
vt 0.758588 0.049928
vt 0.758588 0.149089
vt 0.663724 0.149089
vt 0.308443 0.222247
vt 0.984969 0.222247
vt 0.984969 0.243842
vt 0.308443 0.243842
vt 0.173268 0.120804
vt 0.173268 0.560367
vt 0.016228 0.560367
vt 0.016228 0.120804
vt 0.308443 0.243842
vt 0.984969 0.243842
vt 0.984969 0.222247
vt 0.308443 0.222247
vt 0.016228 0.120804
vt 0.016228 0.560367
vt 0.173268 0.560367
vt 0.173268 0.120804
vt 0.436206 0.147745
vt 0.535342 0.147745
vt 0.535342 0.156603
vt 0.436206 0.156603
vt 0.535342 0.147745
vt 0.436206 0.147745
vt 0.436206 0.156603
vt 0.535342 0.156603
vt 0.372982 0.027514
vt 0.408688 0.027514
vt 0.408688 0.221740
vt 0.372982 0.221740
vt 0.372982 0.221740
vt 0.408688 0.221740
vt 0.408688 0.027514
vt 0.372982 0.027514
vt 0.075102 0.162737
vt 0.075102 0.185936
vt 0.114395 0.185936
vt 0.114395 0.162737
vt 0.473371 0.067872
vt 0.498177 0.067872
vt 0.498177 0.147537
vt 0.473371 0.147537
vt 0.498177 0.067872
vt 0.473371 0.067872
vt 0.473371 0.147537
vt 0.498177 0.147537
vt 0.920429 0.027514
vt 0.884724 0.027514
vt 0.884724 0.221740
vt 0.920429 0.221740
vt 0.920429 0.221740
vt 0.884724 0.221740
vt 0.884724 0.027514
vt 0.920429 0.027514
vt 0.114395 0.518434
vt 0.114395 0.495234
vt 0.075102 0.495234
vt 0.075102 0.518434
vt 0.498177 0.067872
vt 0.473371 0.067872
vt 0.473371 0.147537
vt 0.498177 0.147537
vt 0.473371 0.067872
vt 0.498177 0.067872
vt 0.498177 0.147537
vt 0.473371 0.147537
vt 0.591136 0.134079
vt 0.606895 0.134079
vt 0.606895 0.183916
vt 0.591136 0.183916
vt 0.591136 0.183916
vt 0.606895 0.183916
vt 0.606895 0.134079
vt 0.591136 0.134079
vt 0.044841 0.091436
vt 0.062334 0.091436
vt 0.062334 0.038511
vt 0.044841 0.038511
vt 0.663724 0.049928
vt 0.758588 0.049928
vt 0.758588 0.149089
vt 0.663724 0.149089
vt 0.758588 0.049928
vt 0.663724 0.049928
vt 0.663724 0.149089
vt 0.758588 0.149089
vt 0.562651 0.184027
vt 0.861240 0.184027
vt 0.861240 0.193775
vt 0.562651 0.193775
vt 0.013222 0.023543
vt 0.344669 0.023543
vt 0.344669 0.106405
vt 0.013222 0.106405
vt 0.562651 0.193775
vt 0.861240 0.193775
vt 0.861240 0.184027
vt 0.562651 0.184027
vt 0.013222 0.106405
vt 0.344669 0.106405
vt 0.344669 0.023543
vt 0.013222 0.023543
vt 0.636894 0.149310
vt 0.785418 0.149310
vt 0.785418 0.168705
vt 0.636894 0.168705
vt 0.785418 0.149310
vt 0.636894 0.149310
vt 0.636894 0.168705
vt 0.785418 0.168705
vt 0.832756 0.134079
vt 0.816997 0.134079
vt 0.816997 0.183916
vt 0.832756 0.183916
vt 0.832756 0.183916
vt 0.816997 0.183916
vt 0.816997 0.134079
vt 0.832756 0.134079
vt 0.313050 0.038511
vt 0.295557 0.038511
vt 0.295557 0.091436
vt 0.313050 0.091436
vt 0.758588 0.049928
vt 0.663724 0.049928
vt 0.663724 0.149089
vt 0.758588 0.149089
vt 0.663724 0.049928
vt 0.758588 0.049928
vt 0.758588 0.149089
vt 0.663724 0.149089
vn 0.000000 0.000000 1.000000
vn 0.000000 0.000000 1.000000
vn 0.000000 0.000000 1.000000
vn 0.000000 0.000000 1.000000
vn 0.000000 1.000000 0.000000
vn 0.000000 1.000000 0.000000
vn 0.000000 1.000000 0.000000
vn 0.000000 1.000000 0.000000
vn 0.000000 0.000000 -1.000000
vn 0.000000 0.000000 -1.000000
vn 0.000000 0.000000 -1.000000
vn 0.000000 0.000000 -1.000000
vn 0.000000 -1.000000 0.000000
vn 0.000000 -1.000000 0.000000
vn 0.000000 -1.000000 0.000000
vn 0.000000 -1.000000 0.000000
vn 1.000000 0.000000 0.000000
vn 1.000000 0.000000 0.000000
vn 1.000000 0.000000 0.000000
vn 1.000000 0.000000 0.000000
vn -1.000000 0.000000 0.000000
vn -1.000000 0.000000 0.000000
vn -1.000000 0.000000 0.000000
vn -1.000000 0.000000 0.000000
vn 0.000000 0.000000 1.000000
vn 0.000000 0.000000 1.000000
vn 0.000000 0.000000 1.000000
vn 0.000000 0.000000 1.000000
vn 0.000000 1.000000 0.000000
vn 0.000000 1.000000 0.000000
vn 0.000000 1.000000 0.000000
vn 0.000000 1.000000 0.000000
vn 0.000000 0.000000 -1.000000
vn 0.000000 0.000000 -1.000000
vn 0.000000 0.000000 -1.000000
vn 0.000000 0.000000 -1.000000
vn 0.000000 -1.000000 0.000000
vn 0.000000 -1.000000 0.000000
vn 0.000000 -1.000000 0.000000
vn 0.000000 -1.000000 0.000000
vn 1.000000 0.000000 0.000000
vn 1.000000 0.000000 0.000000
vn 1.000000 0.000000 0.000000
vn 1.000000 0.000000 0.000000
vn -1.000000 0.000000 0.000000
vn -1.000000 0.000000 0.000000
vn -1.000000 0.000000 0.000000
vn -1.000000 0.000000 0.000000
vn 0.000000 0.000000 -1.000000
vn 0.000000 0.000000 -1.000000
vn 0.000000 0.000000 -1.000000
vn 0.000000 0.000000 -1.000000
vn 0.000000 1.000000 0.000000
vn 0.000000 1.000000 0.000000
vn 0.000000 1.000000 0.000000
vn 0.000000 1.000000 0.000000
vn 0.000000 0.000000 1.000000
vn 0.000000 0.000000 1.000000
vn 0.000000 0.000000 1.000000
vn 0.000000 0.000000 1.000000
vn 0.000000 -1.000000 0.000000
vn 0.000000 -1.000000 0.000000
vn 0.000000 -1.000000 0.000000
vn 0.000000 -1.000000 0.000000
vn -1.000000 0.000000 0.000000
vn -1.000000 0.000000 0.000000
vn -1.000000 0.000000 0.000000
vn -1.000000 0.000000 0.000000
vn 1.000000 0.000000 0.000000
vn 1.000000 0.000000 0.000000
vn 1.000000 0.000000 0.000000
vn 1.000000 0.000000 0.000000
vn 0.000000 0.000000 1.000000
vn 0.000000 0.000000 1.000000
vn 0.000000 0.000000 1.000000
vn 0.000000 0.000000 1.000000
vn 0.000000 1.000000 0.000000
vn 0.000000 1.000000 0.000000
vn 0.000000 1.000000 0.000000
vn 0.000000 1.000000 0.000000
vn 0.000000 0.000000 -1.000000
vn 0.000000 0.000000 -1.000000
vn 0.000000 0.000000 -1.000000
vn 0.000000 0.000000 -1.000000
vn 0.000000 -1.000000 0.000000
vn 0.000000 -1.000000 0.000000
vn 0.000000 -1.000000 0.000000
vn 0.000000 -1.000000 0.000000
vn 1.000000 0.000000 0.000000
vn 1.000000 0.000000 0.000000
vn 1.000000 0.000000 0.000000
vn 1.000000 0.000000 0.000000
vn -1.000000 0.000000 0.000000
vn -1.000000 0.000000 0.000000
vn -1.000000 0.000000 0.000000
vn -1.000000 0.000000 0.000000
vn 0.000000 0.000000 1.000000
vn 0.000000 0.000000 1.000000
vn 0.000000 0.000000 1.000000
vn 0.000000 0.000000 1.000000
vn 0.000000 1.000000 0.000000
vn 0.000000 1.000000 0.000000
vn 0.000000 1.000000 0.000000
vn 0.000000 1.000000 0.000000
vn 0.000000 0.000000 -1.000000
vn 0.000000 0.000000 -1.000000
vn 0.000000 0.000000 -1.000000
vn 0.000000 0.000000 -1.000000
vn 0.000000 -1.000000 0.000000
vn 0.000000 -1.000000 0.000000
vn 0.000000 -1.000000 0.000000
vn 0.000000 -1.000000 0.000000
vn 1.000000 0.000000 0.000000
vn 1.000000 0.000000 0.000000
vn 1.000000 0.000000 0.000000
vn 1.000000 0.000000 0.000000
vn -1.000000 0.000000 0.000000
vn -1.000000 0.000000 0.000000
vn -1.000000 0.000000 0.000000
vn -1.000000 0.000000 0.000000
vn 0.000000 0.000000 -1.000000
vn 0.000000 0.000000 -1.000000
vn 0.000000 0.000000 -1.000000
vn 0.000000 0.000000 -1.000000
vn 0.000000 1.000000 0.000000
vn 0.000000 1.000000 0.000000
vn 0.000000 1.000000 0.000000
vn 0.000000 1.000000 0.000000
vn 0.000000 0.000000 1.000000
vn 0.000000 0.000000 1.000000
vn 0.000000 0.000000 1.000000
vn 0.000000 0.000000 1.000000
vn 0.000000 -1.000000 0.000000
vn 0.000000 -1.000000 0.000000
vn 0.000000 -1.000000 0.000000
vn 0.000000 -1.000000 0.000000
vn -1.000000 0.000000 0.000000
vn -1.000000 0.000000 0.000000
vn -1.000000 0.000000 0.000000
vn -1.000000 0.000000 0.000000
vn 1.000000 0.000000 0.000000
vn 1.000000 0.000000 0.000000
vn 1.000000 0.000000 0.000000
vn 1.000000 0.000000 0.000000
vn 0.000000 0.000000 -1.000000
vn 0.000000 0.000000 -1.000000
vn 0.000000 0.000000 -1.000000
vn 0.000000 0.000000 -1.000000
vn 0.000000 1.000000 0.000000
vn 0.000000 1.000000 0.000000
vn 0.000000 1.000000 0.000000
vn 0.000000 1.000000 0.000000
vn 0.000000 0.000000 1.000000
vn 0.000000 0.000000 1.000000
vn 0.000000 0.000000 1.000000
vn 0.000000 0.000000 1.000000
vn 0.000000 -1.000000 0.000000
vn 0.000000 -1.000000 0.000000
vn 0.000000 -1.000000 0.000000
vn 0.000000 -1.000000 0.000000
vn -1.000000 0.000000 0.000000
vn -1.000000 0.000000 0.000000
vn -1.000000 0.000000 0.000000
vn -1.000000 0.000000 0.000000
vn 1.000000 0.000000 0.000000
vn 1.000000 0.000000 0.000000
vn 1.000000 0.000000 0.000000
vn 1.000000 0.000000 0.000000
vn 0.000000 0.000000 -1.000000
vn 0.000000 0.000000 -1.000000
vn 0.000000 0.000000 -1.000000
vn 0.000000 0.000000 -1.000000
vn 0.000000 1.000000 0.000000
vn 0.000000 1.000000 0.000000
vn 0.000000 1.000000 0.000000
vn 0.000000 1.000000 0.000000
vn 0.000000 0.000000 1.000000
vn 0.000000 0.000000 1.000000
vn 0.000000 0.000000 1.000000
vn 0.000000 0.000000 1.000000
vn 0.000000 -1.000000 0.000000
vn 0.000000 -1.000000 0.000000
vn 0.000000 -1.000000 0.000000
vn 0.000000 -1.000000 0.000000
vn -1.000000 0.000000 0.000000
vn -1.000000 0.000000 0.000000
vn -1.000000 0.000000 0.000000
vn -1.000000 0.000000 0.000000
vn 1.000000 0.000000 0.000000
vn 1.000000 0.000000 0.000000
vn 1.000000 0.000000 0.000000
vn 1.000000 0.000000 0.000000
vn 0.000000 0.000000 1.000000
vn 0.000000 0.000000 1.000000
vn 0.000000 0.000000 1.000000
vn 0.000000 0.000000 1.000000
vn 0.000000 1.000000 0.000000
vn 0.000000 1.000000 0.000000
vn 0.000000 1.000000 0.000000
vn 0.000000 1.000000 0.000000
vn 0.000000 0.000000 -1.000000
vn 0.000000 0.000000 -1.000000
vn 0.000000 0.000000 -1.000000
vn 0.000000 0.000000 -1.000000
vn 0.000000 -1.000000 0.000000
vn 0.000000 -1.000000 0.000000
vn 0.000000 -1.000000 0.000000
vn 0.000000 -1.000000 0.000000
vn 1.000000 0.000000 0.000000
vn 1.000000 0.000000 0.000000
vn 1.000000 0.000000 0.000000
vn 1.000000 0.000000 0.000000
vn -1.000000 0.000000 0.000000
vn -1.000000 0.000000 0.000000
vn -1.000000 0.000000 0.000000
vn -1.000000 0.000000 0.000000
s off
g randomTaurus1:polySurface1
usemtl randomTaurus1:lambert1SG
f 1/17/1 2/18/2 4/19/3 3/20/4
f 3//5 4//6 6//7 5//8
f 5/21/9 6/22/10 8/23/11 7/24/12
f 7/1/13 8/2/14 2/3/15 1/4/16
f 2/41/17 8/42/18 6/43/19 4/44/20
f 7/45/21 1/46/22 3/47/23 5/48/24
f 9/25/25 10/26/26 12/27/27 11/28/28
f 11/5/29 12/6/30 14/7/31 13/8/32
f 13/29/33 14/30/34 16/31/35 15/32/36
f 15/9/37 16/10/38 10/11/39 9/12/40
f 10/49/41 16/50/42 14/51/43 12/52/44
f 15/53/45 9/54/46 11/55/47 13/56/48
f 17/33/49 18/34/50 20/35/51 19/36/52
f 19//53 20//54 22//55 21//56
f 21/37/57 22/38/58 24/39/59 23/40/60
f 23/13/61 24/14/62 18/15/63 17/16/64
f 18/57/65 24/58/66 22/59/67 20/60/68
f 23/61/69 17/62/70 19/63/71 21/64/72
f 25/65/73 26/66/74 28/67/75 27/68/76
f 27/69/77 28/70/78 30/71/79 29/72/80
f 29/73/81 30/74/82 32/75/83 31/76/84
f 31/77/85 32/78/86 26/79/87 25/80/88
f 26/81/89 32/82/90 30/83/91 28/84/92
f 31/85/93 25/86/94 27/87/95 29/88/96
f 33/89/97 34/90/98 36/91/99 35/92/100
f 35//101 36//102 38//103 37//104
f 37/93/105 38/94/106 40/95/107 39/96/108
f 39/97/109 40/98/110 34/99/111 33/100/112
f 34/101/113 40/102/114 38/103/115 36/104/116
f 39/105/117 33/106/118 35/107/119 37/108/120
f 41/109/121 42/110/122 44/111/123 43/112/124
f 43//125 44//126 46//127 45//128
f 45/113/129 46/114/130 48/115/131 47/116/132
f 47/117/133 48/118/134 42/119/135 41/120/136
f 42/121/137 48/122/138 46/123/139 44/124/140
f 47/125/141 41/126/142 43/127/143 45/128/144
f 49/129/145 50/130/146 52/131/147 51/132/148
f 51//149 52//150 54//151 53//152
f 53/133/153 54/134/154 56/135/155 55/136/156
f 55/137/157 56/138/158 50/139/159 49/140/160
f 50/141/161 56/142/162 54/143/163 52/144/164
f 55/145/165 49/146/166 51/147/167 53/148/168
f 57/149/169 58/150/170 60/151/171 59/152/172
f 59/153/173 60/154/174 62/155/175 61/156/176
f 61/157/177 62/158/178 64/159/179 63/160/180
f 63/161/181 64/162/182 58/163/183 57/164/184
f 58/165/185 64/166/186 62/167/187 60/168/188
f 63/169/189 57/170/190 59/171/191 61/172/192
f 65/173/193 66/174/194 68/175/195 67/176/196
f 67//197 68//198 70//199 69//200
f 69/177/201 70/178/202 72/179/203 71/180/204
f 71/181/205 72/182/206 66/183/207 65/184/208
f 66/185/209 72/186/210 70/187/211 68/188/212
f 71/189/213 65/190/214 67/191/215 69/192/216
