# This file uses centimeters as units for non-parametric coordinates.

mtllib sheildTest.mtl
g default
v 11.130151 22.396411 -1.219162
v 8.469597 26.378217 -1.219167
v 4.487798 29.038773 -1.219167
v -0.209054 29.973041 -1.219167
v -4.905912 29.038777 -1.219167
v -8.887714 26.378223 -1.219167
v -11.548269 22.396423 -1.219162
v -12.482538 17.699568 -1.219162
v -11.548273 13.002713 -1.219161
v -8.887722 9.020911 -1.219161
v -4.905919 6.360356 -1.219161
v -0.209062 5.426091 -1.219161
v 4.487792 6.360353 -1.219161
v 8.469593 9.020907 -1.219161
v 11.130148 13.002709 -1.219161
v 12.064416 17.699565 -1.219162
v -0.209061 17.699565 1.580038
v 10.554133 22.157818 -1.179794
v 8.028732 25.937349 -1.179794
v 4.249204 28.462752 -1.179794
v -0.209055 29.349559 -1.179794
v -4.667315 28.462758 -1.179794
v -8.446845 25.937355 -1.179794
v -10.972250 22.157829 -1.179794
v -11.859061 17.699568 -1.179791
v -10.972254 13.241306 -1.179788
v -8.446853 9.461776 -1.179788
v -4.667325 6.936375 -1.179788
v -0.209062 6.049568 -1.179788
v 4.249196 6.936371 -1.179788
v 8.028728 9.461774 -1.179788
v 10.554129 13.241303 -1.179788
v 11.440936 17.699565 -1.179791
v 9.092675 21.552459 0.196650
v 6.910158 24.818783 0.196644
v 3.643834 27.001258 0.196644
v -0.209055 27.767568 0.196644
v -4.061949 27.001258 0.196644
v -7.328279 24.818783 0.196644
v -9.510796 21.552452 0.196650
v -10.277063 17.699568 0.196650
v -9.510796 13.846670 0.196650
v -7.328279 10.580344 0.196650
v -4.061956 8.397872 0.196650
v -0.209062 7.631566 0.196650
v 3.643834 8.397872 0.196650
v 6.910158 10.580344 0.196650
v 9.092675 13.846677 0.196650
v 9.858938 17.699565 0.196650
v 6.916002 20.650854 1.048511
v 5.244209 23.152832 1.048511
v 2.742230 24.824592 1.048511
v -0.209057 25.411582 1.048511
v -3.160345 24.824592 1.048511
v -5.662333 23.152832 1.048511
v -7.334124 20.650846 1.048511
v -7.921077 17.699568 1.048514
v -7.334124 14.748275 1.048517
v -5.662333 12.246292 1.048517
v -3.160351 10.574535 1.048517
v -0.209062 9.987547 1.048517
v 2.742230 10.574535 1.048517
v 5.244208 12.246292 1.048517
v 6.916002 14.748281 1.048517
v 7.502954 17.699565 1.048514
v 11.018780 22.350282 -1.937365
v 8.384360 26.292976 -1.937365
v 4.441668 28.927398 -1.937365
v -0.209054 29.852492 -1.937365
v -4.859779 28.927405 -1.937365
v -8.802473 26.292985 -1.937365
v -11.436900 22.350292 -1.937365
v -12.361991 17.699568 -1.937361
v -11.436904 13.048846 -1.937361
v -8.802481 9.106153 -1.937361
v -4.859787 6.471728 -1.937361
v -0.209062 5.546639 -1.937361
v 4.441660 6.471724 -1.937361
v 8.384351 9.106148 -1.937361
v 11.018776 13.048841 -1.937361
v 11.943864 17.699565 -1.937361
v 9.652406 21.784313 -1.943617
v 7.338583 25.247202 -1.943617
v 3.875697 27.561028 -1.943618
v -0.209055 28.373542 -1.943618
v -4.293810 27.561031 -1.943618
v -7.756699 25.247207 -1.943617
v -10.070527 21.784321 -1.943617
v -10.883040 17.699566 -1.943615
v -10.070531 13.614816 -1.943615
v -7.756707 10.151926 -1.943615
v -4.293818 7.838098 -1.943615
v -0.209062 7.025589 -1.943615
v 3.875691 7.838095 -1.943615
v 7.338578 10.151922 -1.943615
v 9.652406 13.614811 -1.943615
v 10.464915 17.699565 -1.943615
v 9.648767 21.782803 -1.477400
v -0.209061 17.699565 -1.567633
v 7.335797 25.244416 -1.477401
v 3.874188 27.557384 -1.477401
v -0.209055 28.369603 -1.477401
v -4.292303 27.557391 -1.477401
v -7.753912 25.244419 -1.477401
v -10.066887 21.782813 -1.477400
v -10.879098 17.699566 -1.477400
v -10.066888 13.616323 -1.477399
v -7.753919 10.154714 -1.477396
v -4.292309 7.841739 -1.477396
v -0.209062 7.029531 -1.477396
v 3.874183 7.841737 -1.477396
v 7.335789 10.154710 -1.477396
v 9.648762 13.616320 -1.477399
v 10.460973 17.699565 -1.477400
vt 0.521268 0.819866
vt 0.466232 0.902234
vt 0.457112 0.893114
vt 0.509353 0.814930
vt 0.383864 0.957271
vt 0.378928 0.945355
vt 0.286704 0.976597
vt 0.286704 0.963700
vt 0.189544 0.957271
vt 0.194480 0.945355
vt 0.107176 0.902234
vt 0.116296 0.893114
vt 0.052140 0.819866
vt 0.064055 0.814931
vt 0.032813 0.722706
vt 0.045711 0.722706
vt 0.052140 0.625547
vt 0.286704 0.722706
vt 0.446236 0.722706
vt 0.434094 0.661656
vt 0.399511 0.609899
vt 0.347755 0.575317
vt 0.286704 0.563175
vt 0.225653 0.575317
vt 0.173897 0.609899
vt 0.139314 0.661656
vt 0.127172 0.722706
vt 0.139314 0.783757
vt 0.173897 0.835513
vt 0.225653 0.870095
vt 0.286704 0.882238
vt 0.347755 0.870095
vt 0.434094 0.783757
vt 0.399511 0.835513
vt 0.064055 0.630482
vt 0.107176 0.543179
vt 0.116296 0.552298
vt 0.189544 0.488142
vt 0.194480 0.500058
vt 0.286704 0.468816
vt 0.286704 0.481713
vt 0.383864 0.488142
vt 0.378928 0.500058
vt 0.466232 0.543178
vt 0.457112 0.552298
vt 0.521268 0.625547
vt 0.509353 0.630482
vt 0.540595 0.722706
vt 0.527697 0.722706
vt 0.433973 0.869975
vt 0.479121 0.802408
vt 0.366405 0.915122
vt 0.286704 0.930974
vt 0.207003 0.915122
vt 0.139435 0.869975
vt 0.094287 0.802408
vt 0.078436 0.722706
vt 0.094287 0.643005
vt 0.139435 0.575437
vt 0.207002 0.530290
vt 0.286704 0.514438
vt 0.366405 0.530290
vt 0.433973 0.575437
vt 0.479121 0.643005
vt 0.494972 0.722706
vt 0.512078 0.956325
vt 0.529398 0.956339
vt 0.529398 0.982346
vt 0.512078 0.982332
vt 0.494758 0.956315
vt 0.494758 0.982323
vt 0.477437 0.956312
vt 0.477437 0.982319
vt 0.460117 0.956315
vt 0.460117 0.982323
vt 0.442796 0.956325
vt 0.442797 0.982332
vt 0.425476 0.956339
vt 0.425476 0.982346
vt 0.685281 0.956356
vt 0.685282 0.982363
vt 0.667961 0.956373
vt 0.667961 0.982380
vt 0.650641 0.956388
vt 0.650641 0.982394
vt 0.633320 0.956397
vt 0.633320 0.982404
vt 0.616000 0.956401
vt 0.616000 0.982407
vt 0.598680 0.956397
vt 0.598680 0.982404
vt 0.581359 0.956388
vt 0.581359 0.982394
vt 0.564039 0.956373
vt 0.564039 0.982380
vt 0.546719 0.956356
vt 0.546718 0.982363
vt 0.702602 0.956339
vt 0.702602 0.982346
vt 0.581557 0.958555
vt 0.562850 0.958570
vt 0.562850 0.979095
vt 0.581557 0.979080
vt 0.600264 0.958544
vt 0.600264 0.979070
vt 0.618971 0.958541
vt 0.618971 0.979066
vt 0.637678 0.958545
vt 0.637678 0.979070
vt 0.656385 0.958555
vt 0.656385 0.979080
vt 0.693799 0.958588
vt 0.693799 0.979113
vt 0.413194 0.958606
vt 0.413193 0.979131
vt 0.431901 0.958621
vt 0.431900 0.979146
vt 0.450608 0.958631
vt 0.450607 0.979157
vt 0.469315 0.958635
vt 0.469315 0.979160
vt 0.488021 0.958631
vt 0.488022 0.979157
vt 0.506728 0.958621
vt 0.506729 0.979147
vt 0.525435 0.958606
vt 0.525436 0.979131
vt 0.544142 0.958588
vt 0.544143 0.979113
vt 0.675092 0.958570
vt 0.675092 0.979095
vt 0.712506 0.979131
vt 0.712506 0.958606
vt 0.692549 0.875879
vt 0.632219 0.850890
vt 0.678394 0.897064
vt 0.657209 0.911219
vt 0.632219 0.916190
vt 0.607230 0.911219
vt 0.586045 0.897064
vt 0.571890 0.875879
vt 0.566919 0.850890
vt 0.571890 0.825900
vt 0.586045 0.804715
vt 0.607230 0.790560
vt 0.632219 0.785589
vt 0.657209 0.790560
vt 0.678394 0.804715
vt 0.692549 0.825900
vt 0.697520 0.850890
vt 0.684811 0.903481
vt 0.700933 0.879352
vt 0.692571 0.875888
vt 0.678411 0.897081
vt 0.660682 0.919604
vt 0.657218 0.911242
vt 0.632219 0.925265
vt 0.632219 0.916214
vt 0.603757 0.919604
vt 0.607221 0.911242
vt 0.579628 0.903481
vt 0.586028 0.897081
vt 0.563505 0.879352
vt 0.571867 0.875888
vt 0.557843 0.850890
vt 0.566895 0.850890
vt 0.563505 0.822427
vt 0.571867 0.825891
vt 0.579628 0.798298
vt 0.586028 0.804698
vt 0.603757 0.782176
vt 0.607221 0.790538
vt 0.632219 0.776514
vt 0.632219 0.785565
vt 0.660681 0.782175
vt 0.657218 0.790538
vt 0.684811 0.798298
vt 0.678411 0.804698
vt 0.700933 0.822427
vt 0.692571 0.825891
vt 0.706595 0.850890
vt 0.697544 0.850890
vn 0.007813 0.003236 -0.999964
vn 0.000000 -0.000000 -1.000000
vn 0.005980 0.005979 -0.999964
vn 0.003236 0.007812 -0.999964
vn 0.000000 0.008456 -0.999964
vn -0.003236 0.007813 -0.999964
vn -0.005980 0.005979 -0.999964
vn -0.007813 0.003236 -0.999964
vn -0.008456 -0.000000 -0.999964
vn -0.007813 -0.003237 -0.999964
vn -0.005980 -0.005980 -0.999964
vn -0.003236 -0.007813 -0.999964
vn -0.000000 -0.008457 -0.999964
vn 0.003236 -0.007813 -0.999964
vn 0.005980 -0.005980 -0.999964
vn 0.007813 -0.003237 -0.999964
vn 0.008456 -0.000000 -0.999964
vn 0.053422 0.035695 0.997934
vn 0.053422 0.035695 0.997934
vn 0.053422 0.035695 0.997934
vn 0.053422 0.035695 0.997934
vn 0.035697 0.053425 0.997934
vn 0.035697 0.053425 0.997934
vn 0.035697 0.053425 0.997934
vn 0.035697 0.053425 0.997934
vn 0.012535 0.063017 0.997934
vn 0.012535 0.063017 0.997934
vn 0.012535 0.063017 0.997934
vn 0.012535 0.063017 0.997934
vn -0.012535 0.063017 0.997934
vn -0.012535 0.063017 0.997934
vn -0.012535 0.063017 0.997934
vn -0.012535 0.063017 0.997934
vn -0.035697 0.053426 0.997934
vn -0.035697 0.053426 0.997934
vn -0.035697 0.053426 0.997934
vn -0.035697 0.053426 0.997934
vn -0.053421 0.035695 0.997934
vn -0.053421 0.035695 0.997934
vn -0.053421 0.035695 0.997934
vn -0.053421 0.035695 0.997934
vn -0.063014 0.012534 0.997934
vn -0.063014 0.012534 0.997934
vn -0.063014 0.012534 0.997934
vn -0.063014 0.012534 0.997934
vn -0.063018 -0.012534 0.997934
vn -0.063018 -0.012534 0.997934
vn -0.063018 -0.012534 0.997934
vn -0.063018 -0.012534 0.997934
vn -0.053425 -0.035698 0.997934
vn -0.053425 -0.035698 0.997934
vn -0.053425 -0.035698 0.997934
vn -0.053425 -0.035698 0.997934
vn -0.035697 -0.053426 0.997933
vn -0.035697 -0.053426 0.997933
vn -0.035697 -0.053426 0.997934
vn -0.035697 -0.053426 0.997934
vn -0.012535 -0.063021 0.997934
vn -0.012535 -0.063021 0.997933
vn -0.012535 -0.063021 0.997933
vn -0.012535 -0.063021 0.997934
vn 0.012535 -0.063018 0.997934
vn 0.012535 -0.063018 0.997934
vn 0.012535 -0.063018 0.997934
vn 0.012535 -0.063018 0.997934
vn 0.035697 -0.053425 0.997934
vn 0.035697 -0.053425 0.997934
vn 0.035697 -0.053425 0.997934
vn 0.035697 -0.053425 0.997934
vn 0.053425 -0.035698 0.997934
vn 0.053425 -0.035698 0.997934
vn 0.053425 -0.035698 0.997934
vn 0.053425 -0.035698 0.997934
vn 0.063018 -0.012534 0.997934
vn 0.063018 -0.012534 0.997934
vn 0.063018 -0.012534 0.997934
vn 0.063018 -0.012534 0.997934
vn 0.063014 0.012534 0.997934
vn 0.063014 0.012534 0.997934
vn 0.063014 0.012534 0.997934
vn 0.063014 0.012534 0.997934
vn 0.606448 0.251196 0.754401
vn 0.464157 0.464158 0.754398
vn 0.371710 0.371713 0.850683
vn 0.485665 0.201165 0.850683
vn 0.251194 0.606444 0.754405
vn 0.201165 0.485663 0.850685
vn 0.000000 0.656404 0.754409
vn 0.000000 0.525673 0.850687
vn -0.251193 0.606444 0.754405
vn -0.201164 0.485663 0.850685
vn -0.464156 0.464158 0.754398
vn -0.371710 0.371712 0.850683
vn -0.606448 0.251197 0.754401
vn -0.485665 0.201165 0.850683
vn -0.656409 0.000001 0.754405
vn -0.525674 0.000000 0.850686
vn -0.606447 -0.251195 0.754402
vn -0.485665 -0.201165 0.850683
vn -0.464156 -0.464157 0.754398
vn -0.371710 -0.371712 0.850683
vn -0.251193 -0.606443 0.754406
vn -0.201164 -0.485663 0.850685
vn -0.000000 -0.656403 0.754410
vn -0.000000 -0.525672 0.850687
vn 0.251193 -0.606444 0.754406
vn 0.201164 -0.485663 0.850685
vn 0.464156 -0.464158 0.754398
vn 0.371710 -0.371712 0.850683
vn 0.606448 -0.251196 0.754402
vn 0.485665 -0.201164 0.850683
vn 0.656410 0.000000 0.754405
vn 0.525674 0.000000 0.850686
vn 0.143649 0.143651 0.979147
vn 0.187689 0.077741 0.979147
vn 0.077741 0.187690 0.979147
vn -0.000000 0.203152 0.979147
vn -0.077741 0.187690 0.979147
vn -0.143649 0.143651 0.979147
vn -0.187689 0.077742 0.979147
vn -0.203151 0.000001 0.979147
vn -0.187690 -0.077741 0.979147
vn -0.143649 -0.143651 0.979147
vn -0.077741 -0.187690 0.979147
vn 0.000000 -0.203152 0.979147
vn 0.077741 -0.187690 0.979147
vn 0.143649 -0.143650 0.979147
vn 0.187690 -0.077740 0.979147
vn 0.203151 0.000001 0.979147
vn -0.000000 0.000001 1.000000
vn 0.697352 0.697352 -0.165531
vn 0.911134 0.377404 -0.165532
vn 0.911134 0.377405 -0.165532
vn 0.697353 0.697351 -0.165531
vn 0.377404 0.911134 -0.165534
vn 0.377405 0.911133 -0.165534
vn 0.000000 0.986204 -0.165534
vn 0.000000 0.986204 -0.165534
vn -0.377404 0.911134 -0.165533
vn -0.377404 0.911134 -0.165533
vn -0.697352 0.697351 -0.165531
vn -0.697352 0.697352 -0.165531
vn -0.911134 0.377405 -0.165529
vn -0.911134 0.377405 -0.165529
vn -0.986205 0.000000 -0.165529
vn -0.986205 0.000001 -0.165529
vn -0.911134 -0.377405 -0.165530
vn -0.911134 -0.377404 -0.165530
vn -0.697352 -0.697351 -0.165532
vn -0.697352 -0.697351 -0.165532
vn -0.377404 -0.911134 -0.165532
vn -0.377404 -0.911134 -0.165532
vn -0.000000 -0.986205 -0.165531
vn -0.000000 -0.986205 -0.165531
vn 0.377404 -0.911134 -0.165532
vn 0.377404 -0.911134 -0.165532
vn 0.697352 -0.697352 -0.165533
vn 0.697352 -0.697352 -0.165533
vn 0.911133 -0.377405 -0.165534
vn 0.911134 -0.377404 -0.165534
vn 0.986204 -0.000000 -0.165535
vn 0.986204 -0.000000 -0.165535
vn 0.003584 0.002395 -0.999991
vn 0.003584 0.002395 -0.999991
vn 0.003584 0.002395 -0.999991
vn 0.003584 0.002395 -0.999991
vn 0.002395 0.003584 -0.999991
vn 0.002395 0.003584 -0.999991
vn 0.002395 0.003584 -0.999991
vn 0.002395 0.003584 -0.999991
vn 0.000841 0.004227 -0.999991
vn 0.000841 0.004227 -0.999991
vn 0.000841 0.004227 -0.999991
vn 0.000841 0.004227 -0.999991
vn -0.000841 0.004228 -0.999991
vn -0.000841 0.004228 -0.999991
vn -0.000841 0.004228 -0.999991
vn -0.000841 0.004228 -0.999991
vn -0.002395 0.003584 -0.999991
vn -0.002395 0.003584 -0.999991
vn -0.002395 0.003584 -0.999991
vn -0.002395 0.003584 -0.999991
vn -0.003584 0.002394 -0.999991
vn -0.003584 0.002394 -0.999991
vn -0.003584 0.002394 -0.999991
vn -0.003584 0.002394 -0.999991
vn -0.004228 0.000840 -0.999991
vn -0.004228 0.000840 -0.999991
vn -0.004228 0.000840 -0.999991
vn -0.004228 0.000840 -0.999991
vn -0.004229 -0.000841 -0.999991
vn -0.004229 -0.000841 -0.999991
vn -0.004229 -0.000841 -0.999991
vn -0.004229 -0.000841 -0.999991
vn -0.003585 -0.002396 -0.999991
vn -0.003585 -0.002396 -0.999991
vn -0.003585 -0.002396 -0.999991
vn -0.003585 -0.002396 -0.999991
vn -0.002395 -0.003585 -0.999991
vn -0.002395 -0.003585 -0.999991
vn -0.002395 -0.003585 -0.999991
vn -0.002395 -0.003585 -0.999991
vn -0.000841 -0.004228 -0.999991
vn -0.000841 -0.004228 -0.999991
vn -0.000841 -0.004228 -0.999991
vn -0.000841 -0.004228 -0.999991
vn 0.000841 -0.004229 -0.999991
vn 0.000841 -0.004229 -0.999991
vn 0.000841 -0.004229 -0.999991
vn 0.000841 -0.004229 -0.999991
vn 0.002395 -0.003584 -0.999991
vn 0.002395 -0.003584 -0.999991
vn 0.002395 -0.003584 -0.999991
vn 0.002395 -0.003584 -0.999991
vn 0.003585 -0.002395 -0.999991
vn 0.003585 -0.002395 -0.999991
vn 0.003585 -0.002395 -0.999991
vn 0.003585 -0.002395 -0.999991
vn 0.004229 -0.000842 -0.999991
vn 0.004229 -0.000842 -0.999991
vn 0.004229 -0.000842 -0.999991
vn 0.004229 -0.000842 -0.999991
vn 0.004228 0.000841 -0.999991
vn 0.004228 0.000841 -0.999991
vn 0.004228 0.000841 -0.999991
vn 0.004228 0.000841 -0.999991
vn -0.707082 -0.707081 -0.008454
vn -0.923846 -0.382671 -0.008452
vn -0.923847 -0.382670 -0.008452
vn -0.707082 -0.707081 -0.008454
vn -0.382671 -0.923846 -0.008455
vn -0.382671 -0.923846 -0.008455
vn -0.000001 -0.999964 -0.008452
vn -0.000001 -0.999964 -0.008452
vn 0.382670 -0.923847 -0.008452
vn 0.382670 -0.923846 -0.008452
vn 0.707082 -0.707081 -0.008454
vn 0.707082 -0.707081 -0.008454
vn 0.923846 -0.382670 -0.008455
vn 0.923846 -0.382670 -0.008455
vn 0.999964 -0.000000 -0.008455
vn 0.999964 -0.000000 -0.008455
vn 0.923847 0.382670 -0.008455
vn 0.923846 0.382670 -0.008455
vn 0.707082 0.707081 -0.008456
vn 0.707082 0.707081 -0.008456
vn 0.382670 0.923846 -0.008455
vn 0.382670 0.923846 -0.008455
vn 0.000000 0.999964 -0.008455
vn 0.000000 0.999964 -0.008455
vn -0.382670 0.923846 -0.008456
vn -0.382670 0.923846 -0.008456
vn -0.707082 0.707081 -0.008458
vn -0.707081 0.707082 -0.008458
vn -0.923846 0.382671 -0.008459
vn -0.923846 0.382671 -0.008459
vn -0.999964 -0.000000 -0.008455
vn -0.999964 -0.000000 -0.008455
s 1
g spartanSheild
usemtl blinn1SG
f 98/134/1 99/135/2 100/136/3
f 100/136/3 99/135/2 101/137/4
f 101/137/4 99/135/2 102/138/5
f 102/138/5 99/135/2 103/139/6
f 103/139/6 99/135/2 104/140/7
f 104/140/7 99/135/2 105/141/8
f 105/141/8 99/135/2 106/142/9
f 106/142/9 99/135/2 107/143/10
f 107/143/10 99/135/2 108/144/11
f 108/144/11 99/135/2 109/145/12
f 109/145/12 99/135/2 110/146/13
f 110/146/13 99/135/2 111/147/14
f 111/147/14 99/135/2 112/148/15
f 112/148/15 99/135/2 113/149/16
f 113/149/16 99/135/2 114/150/17
f 114/150/17 99/135/2 98/134/1
s off
f 1/1/18 2/2/19 19/3/20 18/4/21
f 2/2/22 3/5/23 20/6/24 19/3/25
f 3/5/26 4/7/27 21/8/28 20/6/29
f 4/7/30 5/9/31 22/10/32 21/8/33
f 5/9/34 6/11/35 23/12/36 22/10/37
f 6/11/38 7/13/39 24/14/40 23/12/41
f 7/13/42 8/15/43 25/16/44 24/14/45
f 8/15/46 9/17/47 26/35/48 25/16/49
f 9/17/50 10/36/51 27/37/52 26/35/53
f 10/36/54 11/38/55 28/39/56 27/37/57
f 11/38/58 12/40/59 29/41/60 28/39/61
f 12/40/62 13/42/63 30/43/64 29/41/65
f 13/42/66 14/44/67 31/45/68 30/43/69
f 14/44/70 15/46/71 32/47/72 31/45/73
f 15/46/74 16/48/75 33/49/76 32/47/77
f 16/48/78 1/1/79 18/4/80 33/49/81
s 2
f 18/4/82 19/3/83 35/50/84 34/51/85
f 19/3/83 20/6/86 36/52/87 35/50/84
f 20/6/86 21/8/88 37/53/89 36/52/87
f 21/8/88 22/10/90 38/54/91 37/53/89
f 22/10/90 23/12/92 39/55/93 38/54/91
f 23/12/92 24/14/94 40/56/95 39/55/93
f 24/14/94 25/16/96 41/57/97 40/56/95
f 25/16/96 26/35/98 42/58/99 41/57/97
f 26/35/98 27/37/100 43/59/101 42/58/99
f 27/37/100 28/39/102 44/60/103 43/59/101
f 28/39/102 29/41/104 45/61/105 44/60/103
f 29/41/104 30/43/106 46/62/107 45/61/105
f 30/43/106 31/45/108 47/63/109 46/62/107
f 31/45/108 32/47/110 48/64/111 47/63/109
f 32/47/110 33/49/112 49/65/113 48/64/111
f 33/49/112 18/4/82 34/51/85 49/65/113
f 34/51/85 35/50/84 51/34/114 50/33/115
f 35/50/84 36/52/87 52/32/116 51/34/114
f 36/52/87 37/53/89 53/31/117 52/32/116
f 37/53/89 38/54/91 54/30/118 53/31/117
f 38/54/91 39/55/93 55/29/119 54/30/118
f 39/55/93 40/56/95 56/28/120 55/29/119
f 40/56/95 41/57/97 57/27/121 56/28/120
f 41/57/97 42/58/99 58/26/122 57/27/121
f 42/58/99 43/59/101 59/25/123 58/26/122
f 43/59/101 44/60/103 60/24/124 59/25/123
f 44/60/103 45/61/105 61/23/125 60/24/124
f 45/61/105 46/62/107 62/22/126 61/23/125
f 46/62/107 47/63/109 63/21/127 62/22/126
f 47/63/109 48/64/111 64/20/128 63/21/127
f 48/64/111 49/65/113 65/19/129 64/20/128
f 49/65/113 34/51/85 50/33/115 65/19/129
f 50/33/115 51/34/114 17/18/130
f 51/34/114 52/32/116 17/18/130
f 52/32/116 53/31/117 17/18/130
f 53/31/117 54/30/118 17/18/130
f 54/30/118 55/29/119 17/18/130
f 55/29/119 56/28/120 17/18/130
f 56/28/120 57/27/121 17/18/130
f 57/27/121 58/26/122 17/18/130
f 58/26/122 59/25/123 17/18/130
f 59/25/123 60/24/124 17/18/130
f 60/24/124 61/23/125 17/18/130
f 61/23/125 62/22/126 17/18/130
f 62/22/126 63/21/127 17/18/130
f 63/21/127 64/20/128 17/18/130
f 64/20/128 65/19/129 17/18/130
f 65/19/129 50/33/115 17/18/130
s 3
f 2/66/131 1/67/132 66/68/133 67/69/134
f 3/70/135 2/66/131 67/69/134 68/71/136
f 4/72/137 3/70/135 68/71/136 69/73/138
f 5/74/139 4/72/137 69/73/138 70/75/140
f 6/76/141 5/74/139 70/75/140 71/77/142
f 7/78/143 6/76/141 71/77/142 72/79/144
f 8/80/145 7/98/143 72/99/144 73/81/146
f 9/82/147 8/80/145 73/81/146 74/83/148
f 10/84/149 9/82/147 74/83/148 75/85/150
f 11/86/151 10/84/149 75/85/150 76/87/152
f 12/88/153 11/86/151 76/87/152 77/89/154
f 13/90/155 12/88/153 77/89/154 78/91/156
f 14/92/157 13/90/155 78/91/156 79/93/158
f 15/94/159 14/92/157 79/93/158 80/95/160
f 16/96/161 15/94/159 80/95/160 81/97/162
f 1/67/132 16/96/161 81/97/162 66/68/133
s off
f 67/151/163 66/152/164 82/153/165 83/154/166
f 68/155/167 67/151/168 83/154/169 84/156/170
f 69/157/171 68/155/172 84/156/173 85/158/174
f 70/159/175 69/157/176 85/158/177 86/160/178
f 71/161/179 70/159/180 86/160/181 87/162/182
f 72/163/183 71/161/184 87/162/185 88/164/186
f 73/165/187 72/163/188 88/164/189 89/166/190
f 74/167/191 73/165/192 89/166/193 90/168/194
f 75/169/195 74/167/196 90/168/197 91/170/198
f 76/171/199 75/169/200 91/170/201 92/172/202
f 77/173/203 76/171/204 92/172/205 93/174/206
f 78/175/207 77/173/208 93/174/209 94/176/210
f 79/177/211 78/175/212 94/176/213 95/178/214
f 80/179/215 79/177/216 95/178/217 96/180/218
f 81/181/219 80/179/220 96/180/221 97/182/222
f 66/152/223 81/181/224 97/182/225 82/153/226
s 4
f 83/100/227 82/101/228 98/102/229 100/103/230
f 84/104/231 83/100/227 100/103/230 101/105/232
f 85/106/233 84/104/231 101/105/232 102/107/234
f 86/108/235 85/106/233 102/107/234 103/109/236
f 87/110/237 86/108/235 103/109/236 104/111/238
f 88/130/239 87/110/237 104/111/238 105/131/240
f 89/112/241 88/130/239 105/131/240 106/113/242
f 90/133/243 89/112/241 106/113/242 107/132/244
f 91/116/245 90/114/243 107/115/244 108/117/246
f 92/118/247 91/116/245 108/117/246 109/119/248
f 93/120/249 92/118/247 109/119/248 110/121/250
f 94/122/251 93/120/249 110/121/250 111/123/252
f 95/124/253 94/122/251 111/123/252 112/125/254
f 96/126/255 95/124/253 112/125/254 113/127/256
f 97/128/257 96/126/255 113/127/256 114/129/258
f 82/101/228 97/128/257 114/129/258 98/102/229
